<svg width="33" height="33" viewBox="0 0 33 33" fill="none" xmlns="http://www.w3.org/2000/svg">
<path d="M19.8764 9.81081H3.31274C1.48576 9.81081 0 11.2966 0 13.1235V29.6873C0 31.5142 1.48576 33 3.31274 33H19.8764C21.7034 33 23.1892 31.5142 23.1892 29.6873V13.1235C23.1892 11.2966 21.7034 9.81081 19.8764 9.81081Z" fill="white"/>
<path d="M29.6872 0H13.1235C12.2449 0 11.4023 0.34902 10.7811 0.970279C10.1598 1.59154 9.81079 2.43415 9.81079 3.31274V6.62548H23.0618C23.9404 6.62548 24.783 6.9745 25.4042 7.59576C26.0255 8.21702 26.3745 9.05963 26.3745 9.93822V23.1892H29.6872C30.5658 23.1892 31.4084 22.8402 32.0297 22.2189C32.651 21.5977 33 20.755 33 19.8764V3.31274C33 2.43415 32.651 1.59154 32.0297 0.970279C31.4084 0.34902 30.5658 0 29.6872 0Z" fill="white"/>
</svg>
