<svg width="120" height="64" viewBox="0 0 120 64" fill="none" xmlns="http://www.w3.org/2000/svg">
<path opacity="0.1" d="M91.7782 46.5522C94.7585 46.5522 97.1744 46.3389 97.1744 46.0758C97.1744 45.8127 94.7585 45.5994 91.7782 45.5994C88.798 45.5994 86.382 45.8127 86.382 46.0758C86.382 46.3389 88.798 46.5522 91.7782 46.5522Z" fill="#000002"/>
<path opacity="0.1" d="M76.3384 51.8609C79.63 51.8609 82.2985 51.6085 82.2985 51.297C82.2985 50.9856 79.63 50.7331 76.3384 50.7331C73.0467 50.7331 70.3783 50.9856 70.3783 51.297C70.3783 51.6085 73.0467 51.8609 76.3384 51.8609Z" fill="#000002"/>
<path opacity="0.1" d="M59.9652 56.4404C63.622 56.4404 66.5864 56.1226 66.5864 55.7306C66.5864 55.3386 63.622 55.0208 59.9652 55.0208C56.3083 55.0208 53.3439 55.3386 53.3439 55.7306C53.3439 56.1226 56.3083 56.4404 59.9652 56.4404Z" fill="#000002"/>
<path opacity="0.1" d="M43.3391 51.8706C46.6468 51.8706 49.3283 51.6181 49.3283 51.3067C49.3283 50.9952 46.6468 50.7428 43.3391 50.7428C40.0313 50.7428 37.3498 50.9952 37.3498 51.3067C37.3498 51.6181 40.0313 51.8706 43.3391 51.8706Z" fill="#000002"/>
<path opacity="0.1" d="M27.7048 46.4939C30.685 46.4939 33.1009 46.2806 33.1009 46.0175C33.1009 45.7543 30.685 45.541 27.7048 45.541C24.7245 45.541 22.3086 45.7543 22.3086 46.0175C22.3086 46.2806 24.7245 46.4939 27.7048 46.4939Z" fill="#000002"/>
<path opacity="0.1" d="M28.0839 46.844C32.4603 46.844 36.008 46.4957 36.008 46.0661C36.008 45.6365 32.4603 45.2883 28.0839 45.2883C23.7075 45.2883 20.1598 45.6365 20.1598 46.0661C20.1598 46.4957 23.7075 46.844 28.0839 46.844Z" fill="#000002"/>
<path opacity="0.1" d="M43.3779 52.2401C48.549 52.2401 52.741 51.8309 52.741 51.3262C52.741 50.8214 48.549 50.4122 43.3779 50.4122C38.2068 50.4122 34.0148 50.8214 34.0148 51.3262C34.0148 51.8309 38.2068 52.2401 43.3779 52.2401Z" fill="#000002"/>
<path opacity="0.1" d="M91.8463 46.844C96.2227 46.844 99.7704 46.4957 99.7704 46.0661C99.7704 45.6365 96.2227 45.2883 91.8463 45.2883C87.4699 45.2883 83.9222 45.6365 83.9222 46.0661C83.9222 46.4957 87.4699 46.844 91.8463 46.844Z" fill="#000002"/>
<path opacity="0.1" d="M75.8425 52.2401C81.0136 52.2401 85.2056 51.8309 85.2056 51.3262C85.2056 50.8214 81.0136 50.4122 75.8425 50.4122C70.6714 50.4122 66.4794 50.8214 66.4794 51.3262C66.4794 51.8309 70.6714 52.2401 75.8425 52.2401Z" fill="#000002"/>
<path opacity="0.1" d="M60.0526 56.9459C65.8198 56.9459 70.4949 56.4149 70.4949 55.7598C70.4949 55.1046 65.8198 54.5736 60.0526 54.5736C54.2855 54.5736 49.6103 55.1046 49.6103 55.7598C49.6103 56.4149 54.2855 56.9459 60.0526 56.9459Z" fill="#000002"/>
<path d="M91.8949 22.741C94.2161 22.743 96.4845 23.4338 98.4127 24.726C100.341 26.0182 101.842 27.8537 102.727 29.9999C103.611 32.146 103.838 34.5064 103.38 36.7819C102.922 39.0574 101.798 41.1457 100.152 42.7822C98.5061 44.4188 96.4113 45.5299 94.1332 45.975C91.8551 46.42 89.4961 46.1789 87.3551 45.2822C85.2141 44.3855 83.3874 42.8735 82.1065 40.9377C80.8255 39.002 80.1479 36.7296 80.1594 34.4085C80.1723 31.3062 81.415 28.3357 83.615 26.1485C85.815 23.9613 88.7926 22.7359 91.8949 22.741ZM92.1185 27.7386H86.8098C86.6446 27.7386 86.5862 27.7386 86.5862 27.9622C86.5862 28.672 86.5862 29.3915 86.5862 30.111C86.5862 30.3151 86.5862 30.3832 86.839 30.3832C88.0057 30.3832 89.1725 30.3832 90.3392 30.3832C90.4948 30.3832 90.5531 30.3832 90.5434 30.5874C90.5434 30.9763 90.5434 31.3652 90.5434 31.7541C90.5434 31.8708 90.5434 31.9389 90.3878 31.9486C89.8823 31.9486 89.4156 32.0166 88.8711 32.0847C87.8747 32.1749 86.8943 32.3939 85.9542 32.7361C85.6202 32.8524 85.3128 33.0342 85.05 33.2709C84.9376 33.364 84.8656 33.4971 84.8493 33.6421C84.833 33.7872 84.8736 33.9329 84.9625 34.0487C84.9865 34.0826 85.0161 34.1122 85.05 34.1362C85.3006 34.3671 85.5948 34.5456 85.9153 34.6612C87.3021 35.1448 88.7546 35.4137 90.2226 35.4585C90.4559 35.4585 90.5045 35.5363 90.5045 35.7502C90.5045 37.4225 90.5045 39.1046 90.5045 40.7769C90.5045 40.9422 90.5045 41.0005 90.7184 41.0005H93.4116C93.6061 41.0005 93.6547 40.9422 93.6547 40.7477C93.6547 39.1337 93.6547 37.51 93.6547 35.8863C93.6547 35.4682 93.6547 35.4682 94.0631 35.4391H94.4617C95.5675 35.3621 96.6606 35.1565 97.7189 34.8265C98.1412 34.7078 98.5372 34.5098 98.8856 34.2432C99.0169 34.1607 99.1113 34.0308 99.1493 33.8806C99.1874 33.7303 99.166 33.5711 99.0898 33.4362C99.0411 33.3602 98.9784 33.2942 98.9051 33.2417C98.7749 33.13 98.6312 33.0353 98.4772 32.9597C98.0137 32.7275 97.5241 32.5512 97.0188 32.4347C95.9833 32.1949 94.9296 32.042 93.8686 31.9777C93.7228 31.9777 93.6936 31.9291 93.6936 31.7833C93.6936 31.4235 93.6936 31.0638 93.6936 30.7041C93.6936 30.3443 93.7519 30.3832 93.995 30.3832H97.4466C97.6216 30.3832 97.6897 30.3832 97.6897 30.1498C97.6897 29.4206 97.6897 28.6914 97.6897 27.9719C97.6897 27.7678 97.6897 27.7094 97.4369 27.7094L92.1185 27.7386Z" fill="white"/>
<path d="M92.0505 34.6029C90.347 34.6342 88.6443 34.5039 86.9654 34.214C86.5585 34.1452 86.1607 34.0311 85.7792 33.8737C85.4584 33.7278 85.4584 33.6598 85.7792 33.4653C86.349 33.1103 86.973 32.8508 87.6266 32.6972C88.5268 32.4545 89.4482 32.2983 90.3781 32.2305C90.5434 32.2305 90.6018 32.2305 90.6018 32.4347C90.6018 32.9792 90.6018 33.5334 90.6018 34.0779C90.6018 34.1848 90.6018 34.2432 90.7573 34.2432C91.6421 34.2432 92.5172 34.3209 93.4019 34.3015C93.6353 34.3015 93.7325 34.2432 93.7131 33.9806C93.7131 33.4653 93.7131 32.9403 93.7131 32.4153C93.7131 32.2889 93.7131 32.2305 93.8783 32.2403C95.2455 32.3417 96.5862 32.6703 97.8453 33.2125C98.0598 33.3101 98.2648 33.4273 98.4578 33.5626C98.6036 33.6792 98.5745 33.757 98.4578 33.8348C98.0583 34.0269 97.6322 34.158 97.1938 34.2237C95.4957 34.5167 93.7732 34.6437 92.0505 34.6029Z" fill="white"/>
<path opacity="0.15" d="M92.8574 37.053C92.8589 40.2711 91.7881 43.398 89.8142 45.9397C87.4913 45.526 85.3485 44.4178 83.6684 42.7613C81.9883 41.1047 80.8499 38.9778 80.4034 36.661C79.9569 34.3443 80.2233 31.9466 81.1674 29.7843C82.1115 27.622 83.689 25.7968 85.6917 24.5494C87.8713 25.8293 89.679 27.6562 90.9358 29.8492C92.1926 32.0422 92.855 34.5254 92.8574 37.053Z" fill="#000002"/>
<path fill-rule="evenodd" clip-rule="evenodd" d="M34.6492 24.6447C32.7185 23.3503 30.4473 22.6573 28.1229 22.6535L28.0159 22.6632C24.9137 22.6761 21.9432 23.9188 19.756 26.1188C17.5687 28.3188 16.3433 31.2964 16.3485 34.3987C16.3466 36.7232 17.0339 38.996 18.3235 40.93C19.6131 42.8639 21.4472 44.3721 23.5938 45.2639C25.7404 46.1556 28.1032 46.3909 30.3836 45.94C32.6639 45.4891 34.7594 44.3723 36.4051 42.7307C37.3053 41.8327 36.6636 40.731 35.9722 39.544C35.3997 38.5612 34.7932 37.5199 35 36.4875C35.1987 35.4954 36.1446 34.5309 37.0764 33.5807C38.2853 32.3479 39.4706 31.1392 38.97 29.9257C38.0836 27.7769 36.58 25.9391 34.6492 24.6447ZM22.9697 31.5888C23.1448 31.5402 23.3198 31.5402 23.4948 31.5402C24.0276 31.5285 24.5527 31.6685 25.0089 31.9439C25.4651 32.2194 25.8336 32.6189 26.0713 33.0958C26.1739 33.2929 26.3348 33.4535 26.532 33.5557C26.6847 33.6349 26.8535 33.6761 27.0242 33.6768C27.0961 33.6721 27.1677 33.66 27.238 33.6403C27.4384 33.5996 27.6221 33.5002 27.7658 33.3547C27.9095 33.2093 28.0067 33.0244 28.045 32.8236C28.0828 32.5414 28.0096 32.2556 27.8408 32.0263C27.5135 31.5236 27.3442 30.9344 27.3547 30.3346C27.3898 29.672 27.6498 29.0412 28.0917 28.5462C28.4869 28.1036 29.0065 27.7933 29.58 27.6542C29.6604 27.6335 29.7419 27.6162 29.8244 27.6024C30.5494 27.4875 31.2909 27.6569 31.8942 28.0753C32.4974 28.4938 32.9158 29.129 33.0621 29.8484V30.0234C33.1229 30.5541 33.0365 31.0866 32.8186 31.5648C32.7433 31.743 32.6503 31.9138 32.5407 32.0744C32.3226 32.3937 32.0432 32.6666 31.7188 32.877C31.3943 33.0874 31.0313 33.2312 30.6507 33.3H30.4757C30.3818 33.3053 30.2877 33.3053 30.1938 33.3C29.8972 33.3102 29.6163 33.4358 29.411 33.6501C29.2057 33.8645 29.0924 34.1506 29.0951 34.4473C29.1124 34.7396 29.2409 35.0143 29.4543 35.2149C29.5338 35.2897 29.6228 35.3521 29.7185 35.401C29.7399 35.4097 29.7616 35.4177 29.7837 35.4251C29.9312 35.4744 30.0875 35.4924 30.2424 35.4779C30.7962 35.4375 31.3497 35.5592 31.8354 35.8281C32.3211 36.0971 32.718 36.5017 32.9775 36.9925C33.2371 37.4833 33.3481 38.039 33.297 38.5919C33.2459 39.1447 33.0349 39.6708 32.6898 40.1057C32.3447 40.5406 31.8804 40.8656 31.3536 41.041C30.8269 41.2164 30.2604 41.2346 29.7235 41.0933C29.1865 40.9521 28.7023 40.6575 28.33 40.2457C28.1358 40.0308 27.9764 39.7888 27.8561 39.5286C27.7106 39.2356 27.6171 38.9172 27.5822 38.5874C27.5172 37.9727 27.6595 37.3539 27.9867 36.8294C28.1147 36.6239 28.1704 36.444 28.1686 36.2765C28.1633 35.9674 27.957 35.7008 27.6482 35.3729C27.6476 35.3723 27.647 35.3716 27.6464 35.371C27.6347 35.3607 27.6228 35.3507 27.6107 35.341C27.5417 35.2858 27.4654 35.2403 27.3839 35.2057C27.2601 35.1506 27.1266 35.1206 26.9911 35.1172C26.8557 35.1138 26.7209 35.1371 26.5944 35.1859C26.468 35.2347 26.3524 35.3079 26.2543 35.4014C26.1562 35.4949 26.0775 35.6068 26.0227 35.7307C25.7875 36.2076 25.4187 36.6058 24.9613 36.8768C24.6753 37.0462 24.3625 37.1614 24.0384 37.2183C23.9006 37.2425 23.7608 37.2563 23.6201 37.2591C23.5622 37.2603 23.5042 37.2597 23.4461 37.2572C23.4458 37.2572 23.4454 37.2572 23.4451 37.2572C22.7369 37.2454 22.0583 36.9711 21.5408 36.4875C21.0231 36.0036 20.7035 35.3446 20.6442 34.6385C20.5848 33.9323 20.7899 33.2293 21.2196 32.6658C21.6493 32.1022 22.273 31.7184 22.9697 31.5888Z" fill="white"/>
<path fill-rule="evenodd" clip-rule="evenodd" d="M76.7175 23.2563H75.5216C75.4514 23.2729 75.3798 23.2827 75.3077 23.2855C71.8312 23.498 68.5561 24.9891 66.1131 27.4716C64.7741 28.8323 66.0239 30.3213 67.4011 31.962C68.5366 33.3149 69.7588 34.7709 69.6879 36.3433V37.5489C69.6981 37.6231 69.6981 37.6983 69.6879 37.7725C69.8471 40.4859 69.2573 42.6712 68.6094 45.0718C68.4836 45.5379 68.3556 46.0122 68.2304 46.5C68.5966 46.899 68.3835 47.3644 68.181 47.8068C67.9729 48.2613 67.776 48.6915 68.2304 49C69.9843 50.1906 71.9961 50.9784 74.1215 51.2873C75.1322 51.4347 76.156 51.4705 77.1745 51.3942C80.3467 51.1603 83.3464 49.8598 85.6854 47.7043C88.0245 45.5488 89.5654 42.6652 90.0573 39.5227C90.2043 38.5578 90.2531 37.5805 90.2031 36.6058C90.0439 33.4148 88.8025 30.3731 86.6835 27.9819C84.5645 25.5907 81.6942 23.9926 78.5454 23.4508C77.9416 23.3423 77.3307 23.2773 76.7175 23.2563ZM69.6996 39.7883C69.6957 39.7874 69.6918 39.7864 69.6879 39.7852L69.7938 39.5004L70.1838 38.3073C70.1862 38.291 70.1943 38.2761 70.2069 38.2654C70.2194 38.2546 70.2354 38.2488 70.2519 38.249L72.3617 37.6073C72.3901 37.6007 72.4162 37.5863 72.4368 37.5657C72.4574 37.545 72.4718 37.519 72.4784 37.4906C73.4053 34.3339 74.3355 31.1708 75.2688 28.0011C75.2945 27.8785 75.3639 27.7694 75.4641 27.6943C75.5643 27.6191 75.6884 27.583 75.8133 27.5927H78.8274C78.9403 27.5873 79.051 27.6257 79.1362 27.7001C79.2213 27.7744 79.2745 27.8788 79.2844 27.9914C79.2945 28.0525 79.2945 28.115 79.2844 28.1761C78.8282 29.7329 78.3686 31.2898 77.9096 32.8446C77.5861 33.9408 77.2628 35.0359 76.9412 36.1294C76.9335 36.1544 76.9319 36.1808 76.9363 36.2064L79.1191 35.5363V35.558L79.158 35.546V35.6141L78.7204 37.1211C78.715 37.1412 78.7038 37.1592 78.6883 37.1731C78.6727 37.1869 78.6535 37.1959 78.6329 37.1989L76.4745 37.8115C76.4568 37.8153 76.4404 37.8236 76.4268 37.8355C76.4132 37.8474 76.4029 37.8625 76.3967 37.8795C75.9292 39.4805 75.4554 41.0816 74.9752 42.6826H82.7263C82.7837 42.6682 82.8438 42.6682 82.9013 42.6826C83.0047 42.7239 83.0879 42.8038 83.1333 42.9055C83.1616 42.969 83.1738 43.0379 83.1696 43.1062C83.1768 43.1328 83.1814 43.1603 83.1832 43.1882C83.1933 43.2428 83.1933 43.2988 83.1832 43.3535C83.0582 43.7969 82.9298 44.2403 82.8019 44.6818C82.7111 44.9954 82.6206 45.308 82.5318 45.6189C82.506 45.7433 82.4352 45.8538 82.3329 45.9292C82.2306 46.0046 82.1041 46.0395 81.9776 46.0272H69.9602L69.9979 45.9008H69.931L70.0963 45.3466C70.4025 44.3112 70.7064 43.2757 71.0102 42.2403C71.2996 41.2541 71.5889 40.268 71.8804 39.2819L71.3992 39.4254L69.8435 39.9019L69.6879 39.8241L69.6996 39.7883Z" fill="white"/>
<path opacity="0.15" d="M27.2964 37.053C27.294 40.2729 28.3686 43.4011 30.3494 45.9397C32.6715 45.5245 34.8133 44.4152 36.4922 42.7581C38.171 41.101 33.0546 38.8165 33.5 36.5C33.9454 34.1835 39.9317 31.9437 38.9871 29.7821C38.0424 27.6206 36.4647 25.7961 34.4621 24.5494C32.2871 25.8345 30.4831 27.6624 29.227 29.8543C27.9708 32.0462 27.3056 34.5267 27.2964 37.053Z" fill="#000002"/>
<path fill-rule="evenodd" clip-rule="evenodd" d="M43.4266 51.4331C35.5599 51.4331 29.1826 45.0558 29.1826 37.1891C29.1826 29.3224 35.5599 22.9452 43.4266 22.9452C47.5512 22.9452 51.2663 24.6983 53.8675 27.5C53.3158 28.5339 52.6217 29.5903 51.9174 30.6622C50.8021 32.3596 49.6614 34.0957 49.0206 35.8426L43.5 26.5L36.5 37.5L43 41.5L48.5017 38.3562C48.5006 38.4041 48.5 38.4521 48.5 38.5C48.5 38.946 48.5146 39.3818 48.5431 39.807L48.2977 39.9504L44.5155 42.1381C44.385 42.2127 44.2564 42.2893 44.1282 42.3656L44.1281 42.3657L44.1281 42.3657C43.8554 42.5282 43.5845 42.6895 43.3002 42.8284L43.3293 48.2537C43.4363 48.2829 43.4363 48.1662 43.4363 48.1662L45.7114 44.9966C46.704 43.6512 47.6798 42.3002 48.6558 40.9478C49.0946 44.2786 50.4302 46.8497 52.2765 48.3509C49.8461 50.2805 46.7709 51.4331 43.4266 51.4331ZM43.3002 48.2538V42.8284C43.2612 42.8003 43.2187 42.7775 43.1738 42.7604L37.7387 39.6004C37.6439 39.5445 37.5497 39.4874 37.4555 39.4303C37.173 39.2589 36.8904 39.0876 36.5914 38.949C36.5914 39.018 36.6276 39.0567 36.6668 39.0986L36.6669 39.0987C36.6774 39.1099 36.6881 39.1214 36.6984 39.1337C38.5457 41.7265 40.3995 44.2933 42.2598 46.8342C42.4216 47.0409 42.5771 47.2621 42.7341 47.4854L42.7341 47.4855L42.7341 47.4855C42.9168 47.7453 43.1015 48.008 43.3002 48.2538Z" fill="white"/>
<path opacity="0.15" d="M77.6899 40.3782C77.6906 37.3156 76.8951 34.3053 75.3815 31.6428C73.8679 28.9803 71.6881 26.7571 69.056 25.1912C67.958 25.8253 66.9557 26.603 66.0736 27.5C65.3147 28.2717 68.0651 30.067 67.5 31C66.2779 33.0175 71.5996 35.9377 71.5 38.2944V39.5C71.51 39.5742 71.51 39.6494 71.5 39.7236C71.6765 42.9345 66.8404 44.1173 69 46.5C69.7564 47.3345 67.2815 48.3767 68.2017 49C69.909 50.1563 71.8621 50.9298 73.9271 51.2484C76.3616 48.1477 77.6864 44.3204 77.6899 40.3782Z" fill="#000002"/>
<path opacity="0.15" d="M42.2987 40.3783C42.2993 44.2935 43.6025 48.0972 46.0031 51.1901C47.7897 50.8649 49.4877 50.2026 51.0104 49.2483C51.8929 48.6951 46.7521 44.7406 47.5 44C49.5384 41.9817 49.9585 40.8169 50.5 38C51.0415 35.1831 53.6448 34.2323 52.5 31.6021C51.9828 30.4139 55.3077 29.2254 54.5 28.2304C53.5199 27.023 52.3429 25.9777 51.0104 25.1426C48.3567 26.703 46.1568 28.9297 44.6288 31.6021C43.1007 34.2745 42.2975 37.2998 42.2987 40.3783Z" fill="#000002"/>
<path fill-rule="evenodd" clip-rule="evenodd" d="M50.1017 52.5933C52.8762 54.8231 56.3184 56.0579 59.8776 56.1001C59.9818 56.0964 60.0805 56.0931 60.1747 56.09C60.5817 56.0763 60.9054 56.0654 61.2291 56.0417C61.8099 56.0014 62.3878 55.9267 62.9597 55.8181C65.7862 55.271 68.4109 53.9661 70.5533 52.043C72.6956 50.1198 74.2751 47.6506 75.123 44.8994C75.5508 43.5224 75.7831 42.0921 75.8133 40.6505C75.823 40.1118 75.8036 39.5731 75.755 39.0365C75.706 38.3192 75.5987 37.6071 75.4341 36.9072C74.8179 34.1922 73.5007 31.6861 71.6139 29.639C69.7271 27.5918 67.3365 26.075 64.6807 25.2398C62.7043 24.6085 60.6226 24.3739 58.5553 24.5495C57.8128 24.6028 57.0752 24.71 56.3482 24.8703C52.9377 25.6873 49.8956 27.6151 47.7007 30.3504C45.5057 33.0856 44.2826 36.4731 44.2238 39.9796C44.185 40.3228 44.1979 40.6617 44.2108 41.002C44.2173 41.1726 44.2238 41.3437 44.2238 41.5158C44.2819 42.2853 44.3989 43.0491 44.5739 43.8007C45.3808 47.2675 47.3272 50.3634 50.1017 52.5933ZM61.9383 32.2913C61.9148 32.2886 61.8862 32.2844 61.8513 32.2791L60.9277 32.0847C60.74 32.0565 60.5548 32.0142 60.3735 31.9583L60.3445 31.9655C60.3474 31.9333 60.3539 31.9015 60.3638 31.8708C60.4902 31.3846 60.619 30.8985 60.7478 30.4123C60.8767 29.9262 61.0055 29.44 61.1319 28.9539C61.1615 28.8058 61.1686 28.7705 61.1058 28.7621C61.0951 28.7245 61.0675 28.7153 60.9957 28.6914L59.3526 28.2636C59.2067 28.2636 59.2067 28.2636 59.1678 28.3706V28.4386L58.6136 30.5387C58.5877 30.6392 58.5607 30.7397 58.5337 30.8402C58.4797 31.0411 58.4257 31.242 58.3803 31.443C58.3803 31.5208 58.3219 31.5402 58.2539 31.5207H58.215L57.0483 31.2291L54.4523 30.5679C54.3259 30.5679 54.3259 30.5679 54.287 30.6749C54.2214 30.9207 54.1541 31.1682 54.0866 31.4167C53.9938 31.758 53.9006 32.1012 53.8105 32.4444C53.8061 32.5092 53.8061 32.5741 53.8105 32.6389V32.6972H53.8716C53.8711 32.7004 53.8708 32.7037 53.8708 32.7069C53.8708 32.7172 53.8735 32.7272 53.8786 32.7361H53.9953L55.376 33.0764C55.489 33.1061 55.5962 33.1544 55.6931 33.2192C55.8025 33.3015 55.8947 33.4044 55.9646 33.5221C56.0362 33.6426 56.083 33.7762 56.1021 33.9151C56.1212 34.054 56.1123 34.1953 56.076 34.3307C55.6352 36.0872 55.2042 37.8471 54.7828 39.6102C54.4911 40.8061 54.1995 42.002 53.8981 43.1979C53.8677 43.337 53.7939 43.4629 53.6873 43.5573C53.5806 43.6517 53.4467 43.7097 53.305 43.7229C53.1868 43.7518 53.0634 43.7518 52.9452 43.7229L51.6424 43.4118C51.516 43.4118 51.516 43.4118 51.4673 43.4896C51.4041 43.6403 51.3385 43.7886 51.2729 43.9368C51.2073 44.0851 51.1416 44.2334 51.0784 44.3841L50.5534 45.5897V45.6669C50.524 45.7086 50.5442 45.7355 50.602 45.7355L50.9812 45.8425L53.4022 46.4939C53.609 46.5503 53.8199 46.5986 54.0296 46.6467C54.1452 46.6732 54.2605 46.6996 54.3745 46.7272C54.4239 46.7463 54.454 46.7578 54.4724 46.7742C54.4769 46.8059 54.4676 46.8506 54.4523 46.912C54.2616 47.6339 54.0804 48.3511 53.8988 49.0701C53.8211 49.3776 53.7433 49.6854 53.6647 49.9941C53.6647 50.0862 53.6647 50.1112 53.6985 50.133C53.6999 50.1418 53.7027 50.1485 53.7074 50.1535C53.7195 50.1668 53.7439 50.1688 53.7863 50.1691L54.5818 50.3944L54.9093 50.49L55.0823 50.538L55.5509 50.6747C55.559 50.6747 55.5667 50.6747 55.574 50.6746L55.6093 50.6844C55.726 50.7039 55.726 50.6942 55.726 50.6261C55.7218 50.6069 55.7218 50.587 55.726 50.5678L56.4941 47.6509C56.5427 47.4662 56.5427 47.4662 56.7663 47.4662C57.1974 47.5396 57.6198 47.6475 58.0499 47.7575C58.0758 47.7641 58.1016 47.7707 58.1275 47.7773V47.8451C58.1275 47.8452 58.1275 47.8453 58.1275 47.8454C58.1255 47.8617 58.1244 47.878 58.1242 47.8944C58.1228 47.9158 58.1233 47.9374 58.1258 47.9588L57.3691 50.8011C57.3554 50.8771 57.3359 50.9518 57.3108 51.0248C57.3043 51.0311 57.2992 51.0387 57.2957 51.047C57.2922 51.0554 57.2903 51.0643 57.2903 51.0734C57.2903 51.0824 57.2922 51.0914 57.2957 51.0997C57.2992 51.1081 57.3043 51.1157 57.3108 51.122H57.4177L59.09 51.6567C59.192 51.6907 59.2358 51.7126 59.2613 51.6993C59.2653 51.6973 59.2689 51.6943 59.2722 51.6904C59.2724 51.6902 59.2727 51.6901 59.273 51.6899C59.2863 51.6819 59.2911 51.6601 59.3001 51.6186C59.3064 51.5951 59.3137 51.566 59.3234 51.5303L60.1145 48.6751C60.136 48.6022 60.1575 48.5298 60.179 48.4579C60.2004 48.3796 60.2113 48.3586 60.269 48.353C60.2896 48.3546 60.3144 48.3574 60.3443 48.3607C61.0104 48.4736 61.6823 48.5483 62.3569 48.5843C63.052 48.6232 63.7492 48.5643 64.4279 48.4093C65.3078 48.2234 66.0885 47.7277 66.6304 47.0171C66.6863 46.9453 66.7397 46.8714 66.7906 46.7953C67.0814 46.3417 67.3103 45.8512 67.4712 45.3369C67.6631 44.7831 67.7649 44.202 67.7726 43.6159C67.7654 42.8287 67.4515 42.0752 66.8975 41.5158C66.7575 41.3789 66.6096 41.2507 66.4547 41.1317C66.2487 40.961 66.0295 40.8066 65.7988 40.6699C65.7502 40.6699 65.6919 40.6699 65.6627 40.5922C65.6612 40.5881 65.6598 40.5845 65.6586 40.5812C65.6663 40.5796 65.674 40.5779 65.6816 40.5762C65.6962 40.5844 65.7159 40.5922 65.7405 40.5922C66.2601 40.4836 66.7417 40.2392 67.1363 39.884C67.5308 39.5287 67.8241 39.0753 67.9864 38.5698C68.1125 38.2021 68.1909 37.8198 68.2198 37.4322C68.3042 36.7897 68.1852 36.1369 67.8795 35.5655C67.5772 35.0419 67.1537 34.5985 66.6447 34.2723C66.0977 33.8757 65.5032 33.549 64.8751 33.3L64.0779 33.0083C63.9189 32.9554 63.9204 32.9505 63.9511 32.8481C63.9542 32.8377 63.9576 32.8264 63.9612 32.8139C64.084 32.3506 64.2036 31.8873 64.3237 31.4222C64.4127 31.0771 64.5021 30.731 64.5932 30.3832C64.6515 30.1887 64.7001 29.9846 64.7487 29.7804L64.7487 29.7804C64.7837 29.6336 64.7684 29.6325 64.7209 29.6291C64.7024 29.6277 64.6789 29.626 64.6515 29.6151L63.0861 29.1678C63.0504 29.1678 63.0115 29.15 62.9726 29.1322C62.9162 29.1064 62.8599 29.0807 62.8139 29.1095C62.8071 29.1137 62.801 29.1186 62.7954 29.124C62.7919 29.1255 62.7883 29.1271 62.7848 29.1289C62.6875 29.1775 62.6875 29.3039 62.6875 29.4012C62.5876 29.8141 62.4876 30.2192 62.3867 30.6279C62.262 31.1334 62.136 31.6443 62.0069 32.1819C61.9834 32.2524 61.9741 32.2803 61.9383 32.2913Z" fill="white"/>
<path d="M60.8013 45.9397C59.9104 45.8905 59.0271 45.7471 58.1664 45.5118L57.3302 45.3174C57.2233 45.3174 57.2233 45.3174 57.2525 45.1715L58.0206 42.1477L58.3122 40.9324C58.3122 40.806 58.3122 40.806 58.4581 40.8352C59.2359 41.0102 60.0235 41.1755 60.7818 41.4185C61.382 41.5941 61.9547 41.8527 62.4833 42.1866C62.6802 42.3042 62.8602 42.4482 63.0181 42.6144C63.2779 42.8571 63.46 43.1714 63.5413 43.5175C63.6227 43.8636 63.5996 44.226 63.4751 44.559C63.3796 44.8575 63.2086 45.1263 62.9786 45.3393C62.7486 45.5522 62.4675 45.7021 62.1625 45.7744C61.7215 45.9067 61.2611 45.9626 60.8013 45.9397Z" fill="white"/>
<path d="M58.8859 38.7836C58.9831 38.3558 59.09 37.9378 59.197 37.5099C59.4109 36.6252 59.6345 35.7307 59.8581 34.8459C59.8581 34.7098 59.8581 34.7098 60.0234 34.7487C60.5582 34.8848 61.0929 35.0112 61.618 35.1765C62.1011 35.3204 62.5672 35.516 63.0083 35.7598C63.3014 35.9331 63.5642 36.1532 63.7862 36.4113C64.0537 36.73 64.2003 37.1328 64.2003 37.5488C64.2003 37.9649 64.0537 38.3677 63.7862 38.6864C63.5141 38.9845 63.1523 39.1859 62.7556 39.2601C62.2787 39.3329 61.7935 39.3329 61.3166 39.2601C60.5436 39.157 59.7797 38.9945 59.0317 38.7739L58.8859 38.7836Z" fill="white"/>
<path d="M38.6624 13.6794C38.6443 14.2265 38.4834 14.7595 38.1957 15.2253C37.8981 15.6786 37.4762 16.0364 36.9804 16.2559C36.4267 16.5133 35.8212 16.6397 35.2108 16.6254C34.7261 16.6486 34.2423 16.5648 33.7936 16.3799C33.345 16.1951 32.9425 15.9137 32.6148 15.5559C31.927 14.6996 31.5806 13.6189 31.6426 12.5224V12.114C31.6323 11.3726 31.7885 10.6383 32.0995 9.96524C32.3564 9.37999 32.7832 8.88543 33.3246 8.54571C33.8798 8.19465 34.5249 8.01226 35.1817 8.02068C36.0687 7.97573 36.9411 8.25962 37.6318 8.81795C38.2602 9.38565 38.6378 10.1793 38.6819 11.025H36.6304C36.6553 10.6414 36.5337 10.2626 36.2901 9.96524C35.9729 9.72436 35.579 9.60688 35.1817 9.63467C34.9646 9.61981 34.7475 9.66447 34.5539 9.76384C34.3603 9.86321 34.1975 10.0135 34.083 10.1986C33.81 10.7504 33.6828 11.363 33.7135 11.9779V12.5612C33.6625 13.2277 33.7795 13.8963 34.0538 14.5058C34.1741 14.6997 34.3462 14.8561 34.5506 14.9575C34.755 15.0588 34.9837 15.1011 35.2108 15.0795C35.5931 15.1062 35.9714 14.9882 36.2706 14.7489C36.403 14.6112 36.5058 14.4478 36.5727 14.2689C36.6395 14.09 36.6691 13.8993 36.6595 13.7085L38.6624 13.6794Z" fill="white"/>
<path d="M45.1572 13.5627H44.0683V16.4795H42.0557V8.15676H45.3809C46.2078 8.10898 47.0267 8.34195 47.7046 8.81791C47.9818 9.04066 48.2022 9.32604 48.3476 9.65059C48.4929 9.97513 48.5592 10.3296 48.5408 10.6847C48.5593 11.1875 48.4382 11.6856 48.1908 12.1237C47.9252 12.5499 47.5396 12.8882 47.0824 13.096L48.8325 16.4698V16.5476H46.6351L45.1572 13.5627ZM44.0683 12.007H45.3809C45.5381 12.0189 45.6961 11.9983 45.8449 11.9464C45.9938 11.8946 46.1304 11.8126 46.2462 11.7056C46.3485 11.591 46.427 11.4572 46.4771 11.312C46.5272 11.1668 46.5479 11.013 46.5379 10.8597C46.5477 10.7056 46.526 10.5512 46.4742 10.4058C46.4224 10.2603 46.3415 10.127 46.2365 10.0138C46.1228 9.90659 45.988 9.82436 45.8406 9.77245C45.6932 9.72053 45.5366 9.70008 45.3809 9.71241H44.0683V12.007Z" fill="white"/>
<path d="M54.8315 11.7834L56.3677 8.15677H58.5456L55.8524 13.5141V16.5087H53.8106V13.5141L51.1271 8.15677H53.2953L54.8315 11.7834Z" fill="white"/>
<path d="M63.6112 13.6794V16.5087H61.5986V8.1568H64.9335C65.5178 8.14264 66.0973 8.26586 66.6253 8.51654C67.0943 8.72182 67.4931 9.05978 67.7726 9.48883C68.0456 9.93252 68.1841 10.4459 68.1712 10.9667C68.1842 11.3362 68.1121 11.7038 67.9603 12.041C67.8086 12.3782 67.5813 12.6759 67.2962 12.9113C66.6113 13.4317 65.7631 13.6904 64.9043 13.6405L63.6112 13.6794ZM63.6112 12.1237H64.9335C65.2582 12.1462 65.579 12.0416 65.828 11.832C65.9335 11.7232 66.0148 11.5933 66.0667 11.4509C66.1187 11.3085 66.14 11.1568 66.1294 11.0056C66.1446 10.831 66.1249 10.6551 66.0715 10.4882C66.018 10.3213 65.932 10.1667 65.8183 10.0333C65.7075 9.91582 65.5731 9.82304 65.424 9.76105C65.2749 9.69906 65.1144 9.66924 64.953 9.67356H63.6112V12.1237Z" fill="white"/>
<path d="M78.1371 9.71242H75.6286V16.5184H73.5771V9.71242H71.1561V8.15677H78.1371V9.71242Z" fill="white"/>
<path d="M88.2586 12.5126C88.2737 13.2565 88.1208 13.9943 87.8114 14.6711C87.5331 15.2712 87.083 15.7754 86.5182 16.1198C85.9323 16.4721 85.257 16.6477 84.5736 16.6253C83.8932 16.6446 83.2205 16.4764 82.6291 16.1392C82.0714 15.8064 81.6248 15.3158 81.3457 14.7294C81.0224 14.0802 80.8559 13.3642 80.8595 12.639V12.1723C80.8669 11.4043 81.0534 10.6486 81.404 9.9652C81.6823 9.36504 82.1323 8.86089 82.6971 8.5165C83.2829 8.1628 83.9576 7.984 84.6417 8.00119C85.3245 7.98374 85.9984 8.15896 86.5863 8.50677C87.1187 8.86836 87.5369 9.37429 87.7919 9.9652C88.1131 10.6317 88.273 11.3645 88.2586 12.1042V12.5126ZM86.2168 12.1626C86.2559 11.504 86.1111 10.8476 85.7987 10.2666C85.6744 10.063 85.4981 9.89619 85.2879 9.7834C85.0777 9.6706 84.8412 9.61589 84.6028 9.6249C83.6305 9.6249 83.0666 10.3833 83.0083 11.8903V12.5126C82.9715 13.1667 83.1126 13.8185 83.4166 14.3988C83.545 14.5995 83.7218 14.7647 83.9308 14.8792C84.1398 14.9936 84.3743 15.0536 84.6125 15.0536C84.8508 15.0536 85.0853 14.9936 85.2942 14.8792C85.5032 14.7647 85.6801 14.5995 85.8085 14.3988C86.1069 13.827 86.2478 13.186 86.2168 12.5418V12.1626Z" fill="white"/>
</svg>
