<svg width="120" height="65" viewBox="0 0 120 65" fill="none" xmlns="http://www.w3.org/2000/svg">
<g clip-path="url(#clip0_3_340)">
<path d="M57.8 33.2V42.5H54.8V19.5H62.6C64.5 19.5 66.3 20.2 67.7 21.5C69.1 22.7 69.8 24.5 69.8 26.4C69.8 28.3 69.1 30 67.7 31.3C66.3 32.6 64.6 33.3 62.6 33.3L57.8 33.2ZM57.8 22.3V30.3H62.8C63.9 30.3 65 29.9 65.7 29.1C67.3 27.6 67.3 25.1 65.8 23.6L65.7 23.5C64.9 22.7 63.9 22.2 62.8 22.3H57.8Z" fill="white"/>
<path d="M76.7 26.3C78.9 26.3 80.6 26.9 81.9 28.1C83.2 29.3 83.8 30.9 83.8 32.9V42.5H81V40.3H80.9C79.7 42.1 78 43 76 43C74.3 43 72.8 42.5 71.6 41.5C70.5 40.5 69.8 39.1 69.8 37.6C69.8 36 70.4 34.7 71.6 33.7C72.8 32.7 74.5 32.3 76.5 32.3C78.3 32.3 79.7 32.6 80.8 33.3V32.6C80.8 31.6 80.4 30.6 79.6 30C78.8 29.3 77.8 28.9 76.7 28.9C75 28.9 73.7 29.6 72.8 31L70.2 29.4C71.8 27.3 73.9 26.3 76.7 26.3ZM72.9 37.7C72.9 38.5 73.3 39.2 73.9 39.6C74.6 40.1 75.4 40.4 76.2 40.4C77.4 40.4 78.6 39.9 79.5 39C80.5 38.1 81 37 81 35.8C80.1 35.1 78.8 34.7 77.1 34.7C75.9 34.7 74.9 35 74.1 35.6C73.3 36.1 72.9 36.8 72.9 37.7Z" fill="white"/>
<path d="M100 26.8L90.1 49.5H87.1L90.8 41.6L84.3 26.9H87.5L92.2 38.2H92.3L96.9 26.9H100V26.8Z" fill="white"/>
<path d="M45.9 31.2C45.9 30.3 45.8 29.4 45.7 28.5H33.2V33.6H40.3C40 35.2 39.1 36.7 37.7 37.6V40.9H42C44.5 38.6 45.9 35.2 45.9 31.2Z" fill="white"/>
<path d="M33.2 44.1C36.8 44.1 39.8 42.9 42 40.9L37.7 37.6C36.5 38.4 35 38.9 33.2 38.9C29.8 38.9 26.8 36.6 25.8 33.4H21.4V36.8C23.7 41.3 28.2 44.1 33.2 44.1Z" fill="white"/>
<path d="M25.8 33.4C25.2 31.8 25.2 30 25.8 28.3V24.9H21.4C19.5 28.6 19.5 33 21.4 36.8L25.8 33.4Z" fill="white"/>
<path d="M33.2 22.9C35.1 22.9 36.9 23.6 38.3 24.9L42.1 21.1C39.7 18.9 36.5 17.6 33.3 17.7C28.3 17.7 23.7 20.5 21.5 25L25.9 28.4C26.8 25.2 29.8 22.9 33.2 22.9Z" fill="white"/>
</g>
<defs>
<clipPath id="clip0_3_340">
<rect width="80" height="38.1" fill="white" transform="translate(20 13.5)"/>
</clipPath>
</defs>
</svg>
