<svg width="160" height="93" viewBox="0 0 160 93" fill="none" xmlns="http://www.w3.org/2000/svg">
<path d="M137.793 36.7442C136.14 35.6342 133.693 35.068 130.454 35.068H121.96L118.811 52.1925H107.689L108.414 48.2964H115.096L115.889 43.9247H109.184L109.909 40.0513H116.818L117.724 35.0453H103.703L100.713 51.2864H95.5707L98.5834 35.0453H91.2669L88.2769 51.2864H83.271L86.2836 35.0453H78.9672L75.796 52.1699H64.6061L65.3083 48.2738H72.0358L72.8286 43.9247H66.1011L66.8033 40.0286H73.8026L74.7087 35H31.0592L28.5675 48.6362L23.6295 35.068H16.0186L11.9413 57.2211H19.1898L21.6588 43.2678L26.4609 57.2211H52.4649L55.6361 40.0966H59.7134L56.5422 57.2211H124.972L126.966 46.4164L130.182 57.2211H137.453L134.124 48.387L134.871 48.2285C136.547 47.8661 137.861 47.0959 138.767 45.9407C139.673 44.7855 140.149 43.2678 140.149 41.4783C140.126 39.3717 139.356 37.8314 137.793 36.7442ZM46.1678 52.1925H35.0685L35.7934 48.2964H42.77L43.5628 43.9247H36.6541L37.311 40.0739H48.4103L46.1678 52.1925ZM131.791 44.7175C131.066 45.2385 130.001 45.465 128.551 45.465H127.102L128.212 39.5303H129.276C130.477 39.5303 131.36 39.7342 131.949 40.1192C132.425 40.4364 132.968 41.0253 132.968 42.1805C133.014 43.6076 132.357 44.3551 131.791 44.7175Z" fill="white"/>
<path d="M143.411 55.7946L143.23 52.3063L144.77 52.2156C145.019 52.193 145.246 52.2156 145.472 52.2836C145.631 52.3289 145.789 52.4422 145.88 52.6007C145.993 52.7593 146.038 52.9405 146.061 53.1217C146.084 53.3482 146.016 53.5747 145.857 53.7559C145.676 53.9598 145.404 54.0957 145.132 54.1184C145.246 54.1637 145.336 54.209 145.427 54.2769C145.585 54.4128 145.721 54.5487 145.834 54.73L146.491 55.636L145.925 55.6587L145.427 54.9565C145.291 54.7526 145.155 54.5941 145.064 54.5034C144.996 54.4128 144.906 54.3449 144.815 54.2769C144.747 54.2316 144.679 54.209 144.589 54.1863C144.498 54.1863 144.407 54.1637 144.317 54.1863L143.773 54.209L143.864 55.7493L143.411 55.7946ZM143.773 53.8239L144.77 53.7786C144.928 53.7786 145.11 53.756 145.268 53.688C145.381 53.6427 145.472 53.5747 145.517 53.4615C145.563 53.3709 145.608 53.2576 145.585 53.1444C145.585 52.9858 145.495 52.8499 145.381 52.7366C145.223 52.6234 145.019 52.5781 144.815 52.6007L143.705 52.646L143.773 53.8239Z" fill="white"/>
<path d="M144.43 50.7206C142.641 50.8112 141.259 52.3515 141.349 54.141C141.44 55.9305 142.98 57.3122 144.77 57.2216C146.559 57.131 147.941 55.5907 147.85 53.8012C147.76 51.9891 146.22 50.63 144.43 50.7206ZM141.893 54.0957C141.78 52.6007 142.912 51.3096 144.385 51.1963C145.88 51.083 147.171 52.2156 147.284 53.688C147.284 53.7333 147.284 53.7559 147.284 53.8012C147.284 53.8465 147.284 53.8918 147.284 53.9371C147.284 55.4321 146.061 56.6327 144.566 56.6327C143.139 56.6553 141.961 55.5227 141.893 54.0957Z" fill="white"/>
</svg>
