<svg width="120" height="65" viewBox="0 0 120 65" fill="none" xmlns="http://www.w3.org/2000/svg">
<g clip-path="url(#clip0_3_323)">
<path d="M32.0879 19.7702C31.0567 21.02 29.4067 22.0057 27.7567 21.8649C27.5504 20.1751 28.3583 18.3796 29.3036 17.2707C30.3348 15.9857 32.1395 15.0704 33.6004 15C33.7723 16.7602 33.102 18.4853 32.0879 19.7702ZM33.5833 22.1993C31.1942 22.0585 29.1489 23.5899 28.0145 23.5899C26.8629 23.5899 25.127 22.2697 23.2364 22.3049C20.7786 22.3402 18.4926 23.7659 17.2379 26.0366C14.6598 30.578 16.5676 37.3021 19.0598 40.9986C20.2801 42.8292 21.7411 44.8359 23.6661 44.7655C25.4879 44.6951 26.2098 43.5509 28.4098 43.5509C30.627 43.5509 31.2629 44.7655 33.1879 44.7303C35.1817 44.6951 36.4364 42.8996 37.6567 41.069C39.0489 38.9919 39.6161 36.9676 39.6504 36.862C39.6161 36.8268 35.8004 35.3306 35.7661 30.8245C35.7317 27.0576 38.7739 25.2621 38.9114 25.1565C37.1926 22.5514 34.5114 22.2697 33.5833 22.1993ZM47.3848 17.0947V44.5366H51.5442V35.1546H57.302C62.5614 35.1546 66.2567 31.4581 66.2567 26.107C66.2567 20.7559 62.6301 17.0947 57.4395 17.0947H47.3848ZM51.5442 20.6855H56.3395C59.9489 20.6855 62.0114 22.657 62.0114 26.1246C62.0114 29.5923 59.9489 31.5814 56.3223 31.5814H51.5442V20.6855ZM73.8536 44.7479C76.4661 44.7479 78.8895 43.3925 79.9895 41.245H80.0754V44.5366H83.9254V30.8773C83.9254 26.9167 80.8317 24.3644 76.0708 24.3644C71.6536 24.3644 68.3879 26.952 68.2676 30.5076H72.0145C72.3239 28.8178 73.8536 27.7088 75.9504 27.7088C78.4942 27.7088 79.9208 28.9234 79.9208 31.1589V32.6727L74.7301 32.9895C69.9004 33.2888 67.2879 35.313 67.2879 38.8335C67.2879 42.3892 69.9864 44.7479 73.8536 44.7479ZM74.9708 41.4914C72.7536 41.4914 71.3442 40.4001 71.3442 38.7279C71.3442 37.0029 72.702 35.9995 75.2973 35.8411L79.9208 35.5419V37.0909C79.9208 39.6608 77.7895 41.4914 74.9708 41.4914ZM89.0645 52C93.1208 52 95.0286 50.4158 96.6958 45.6104L104 24.6284H99.7723L94.8739 40.8402H94.7879L89.8895 24.6284H85.5411L92.5879 44.607L92.2098 45.8216C91.5739 47.8811 90.5426 48.6732 88.7036 48.6732C88.377 48.6732 87.7411 48.638 87.4833 48.6028V51.8944C87.7239 51.9648 88.7551 52 89.0645 52Z" fill="white"/>
</g>
<defs>
<clipPath id="clip0_3_323">
<rect width="88" height="37" fill="white" transform="translate(16 15)"/>
</clipPath>
</defs>
</svg>
