<svg width="120" height="64" viewBox="0 0 120 64" fill="none" xmlns="http://www.w3.org/2000/svg">
<path d="M38.9911 42.0864V39.5087H43.6826C44.572 39.5087 44.7395 39.3153 44.6879 38.3744H43.3991C42.5871 38.3744 41.7622 38.3744 40.9502 38.2842C40.4336 38.1907 39.9661 37.9189 39.6293 37.5161C39.2926 37.1134 39.1077 36.6052 39.1071 36.0802C39.1071 33.5025 39.1071 30.9247 39.1071 28.2825H41.6204V34.8429C41.6204 35.4873 41.8911 35.7838 42.5355 35.7709C43.0575 35.7591 43.5783 35.7161 44.0951 35.642C44.5462 35.642 44.7137 35.2811 44.7137 34.8171C44.7137 32.7807 44.7137 30.7442 44.7137 28.7207V28.218H47.2915V28.6949C47.2915 32.2522 47.2915 35.7967 47.2915 39.354C47.3476 39.9348 47.2098 40.5179 46.8997 41.0122C46.5896 41.5065 46.1246 41.8842 45.5773 42.0864H38.9911Z" fill="white"/>
<path d="M18.6395 42.0863C18.6395 38.3743 18.6395 34.6495 18.6395 30.9246C18.5933 30.2863 18.7513 29.6498 19.0906 29.1073C19.2626 28.8462 19.4958 28.6311 19.7698 28.4806C20.0439 28.3301 20.3505 28.2488 20.6631 28.2437C22.0809 28.2437 23.4986 28.2437 24.9035 28.2437C25.1554 28.235 25.4064 28.2773 25.6415 28.3682C25.8766 28.459 26.0909 28.5964 26.2715 28.7722C26.4521 28.948 26.5953 29.1585 26.6925 29.3911C26.7896 29.6236 26.8387 29.8734 26.8368 30.1255C26.94 32.0459 26.94 33.9921 26.9271 35.8997C26.9292 36.234 26.8632 36.5653 26.733 36.8733C26.6029 37.1814 26.4114 37.4596 26.1702 37.6912C25.929 37.9228 25.6431 38.1028 25.3301 38.2202C25.017 38.3377 24.6833 38.3901 24.3493 38.3743C23.3053 38.3743 22.2742 38.3743 21.1786 38.3743V42.0863H18.6395ZM24.3493 33.2575C24.3493 32.6646 24.3493 32.0717 24.3493 31.4788C24.3493 30.8859 24.1688 30.8344 23.7048 30.8344C23.2409 30.8344 22.5835 30.8344 22.0164 30.8344C21.9108 30.8164 21.8025 30.8239 21.7004 30.8564C21.5984 30.8889 21.5056 30.9454 21.4298 31.0211C21.3541 31.0969 21.2976 31.1896 21.2651 31.2917C21.2326 31.3938 21.2251 31.5021 21.2431 31.6077C21.2431 32.7161 21.2431 33.8375 21.2431 34.9459C21.2431 35.397 21.4106 35.629 21.8617 35.6806C22.3129 35.7321 22.9831 35.7579 23.5373 35.7579C23.65 35.7619 23.7623 35.742 23.8668 35.6995C23.9713 35.657 24.0656 35.5928 24.1436 35.5113C24.2215 35.4297 24.2812 35.3326 24.3189 35.2262C24.3566 35.1199 24.3714 35.0068 24.3622 34.8943C24.3106 34.353 24.3493 33.7472 24.3493 33.2059V33.2575Z" fill="white"/>
<path d="M118 36.235C117.923 36.4413 117.858 36.6475 117.768 36.8537C117.568 37.3029 117.237 37.6812 116.819 37.9388C116.4 38.1965 115.913 38.3214 115.422 38.2973C114.378 38.2973 113.321 38.2973 112.264 38.2973C111.926 38.3108 111.588 38.2527 111.273 38.1269C110.959 38.0011 110.674 37.8103 110.438 37.5671C110.202 37.3238 110.02 37.0335 109.904 36.7152C109.788 36.3968 109.74 36.0575 109.764 35.7195C109.764 34.031 109.764 32.3426 109.764 30.6542C109.743 30.3102 109.796 29.9659 109.918 29.6437C110.04 29.3216 110.23 29.0291 110.473 28.7855C110.717 28.5419 111.009 28.3527 111.331 28.2305C111.654 28.1082 111.998 28.0557 112.342 28.0764C113.85 28.0764 115.345 28.0764 116.853 28.0764H117.343V24.8026H118V36.235ZM117.394 28.7853C115.757 28.7853 114.185 28.7853 112.625 28.7853C112.298 28.7644 111.971 28.82 111.669 28.9475C111.367 29.075 111.099 29.2709 110.885 29.5199C110.548 29.9286 110.374 30.4472 110.396 30.9764C110.396 32.6519 110.396 34.3146 110.46 35.9901C110.45 36.3845 110.595 36.7671 110.866 37.0544C111.136 37.3417 111.509 37.5105 111.904 37.5239C112.922 37.6013 113.94 37.6013 114.958 37.6141C115.255 37.6174 115.551 37.5739 115.835 37.4853C116.33 37.3793 116.766 37.0881 117.053 36.6712C117.341 36.2542 117.458 35.7432 117.381 35.2426C117.381 33.4768 117.381 31.7239 117.381 29.9582L117.394 28.7853Z" fill="white"/>
<path d="M64.1887 31.4401C64.1887 30.9503 64.034 30.7828 63.5185 30.7828C62.0105 30.7828 60.5154 30.7828 59.0203 30.7828H58.5176V28.205H64.4336C64.7401 28.1799 65.0485 28.2216 65.3374 28.3271C65.6262 28.4327 65.8888 28.5997 66.1069 28.8166C66.325 29.0334 66.4934 29.295 66.6006 29.5833C66.7078 29.8716 66.7512 30.1797 66.7278 30.4863C66.7278 32.3939 66.7278 34.353 66.7278 36.209C66.7312 36.4894 66.6792 36.7676 66.5746 37.0278C66.4701 37.2879 66.3151 37.5249 66.1187 37.7249C65.9222 37.9249 65.6881 38.0842 65.4299 38.1934C65.1717 38.3027 64.8944 38.3598 64.6141 38.3614C63.3252 38.3614 62.0363 38.3614 60.7474 38.3614C60.4358 38.3945 60.1207 38.3571 59.8255 38.2518C59.5303 38.1465 59.2626 37.9761 59.0422 37.7533C58.8219 37.5304 58.6545 37.2609 58.5525 36.9645C58.4506 36.6682 58.4166 36.3527 58.4532 36.0414C58.4532 35.3712 58.4532 34.7526 58.4532 34.005C58.4532 32.2006 59.3683 31.6077 60.9149 31.5432C61.9589 31.5432 62.9901 31.5432 64.0341 31.5432L64.1887 31.4401ZM62.6292 34.0179H62.1523C60.9536 34.0179 61.0954 33.9534 61.0825 35.1263C61.0825 35.4357 61.2243 35.6419 61.5207 35.6548C62.2554 35.6548 62.9901 35.6548 63.7247 35.6548C64.0083 35.6548 64.2145 35.513 64.1887 35.2166C64.1629 34.9201 64.3821 34.3401 63.9181 34.0437C63.8211 34.0168 63.7186 34.0168 63.6216 34.0437L62.6292 34.0179Z" fill="white"/>
<path d="M34.5573 31.5562C34.5573 30.9376 34.4026 30.7829 33.9257 30.7829C32.4048 30.7829 30.8839 30.7829 29.3759 30.7829H28.8862V28.2051H34.7893C35.0953 28.1822 35.4027 28.2254 35.6905 28.3318C35.9784 28.4381 36.24 28.6052 36.4576 28.8216C36.6753 29.038 36.8438 29.2986 36.9518 29.5859C37.0597 29.8732 37.1047 30.1803 37.0835 30.4865C37.0835 32.278 37.0835 34.0567 37.0835 35.8482C37.102 36.1753 37.0514 36.5025 36.9351 36.8087C36.8188 37.115 36.6393 37.3932 36.4082 37.6255C36.1772 37.8577 35.8999 38.0387 35.5943 38.1566C35.2887 38.2745 34.9617 38.3268 34.6346 38.31C33.5004 38.31 32.3533 38.31 31.219 38.31C30.8772 38.3289 30.5353 38.2755 30.2155 38.1534C29.8957 38.0312 29.6052 37.8431 29.363 37.6011C29.0401 37.2495 28.8607 36.7896 28.8604 36.3122C28.8604 35.3842 28.8604 34.4691 28.8604 33.5411C28.8558 33.0396 29.0425 32.5551 29.3825 32.1864C29.7226 31.8176 30.1903 31.5923 30.6906 31.5562C31.9666 31.5176 33.2555 31.5562 34.5573 31.5562ZM32.9333 33.9793C32.6457 33.9987 32.3572 33.9987 32.0697 33.9793C31.6186 33.9149 31.4124 34.134 31.3479 34.5465C31.2448 35.1909 31.3479 35.5518 31.8635 35.6162C32.5382 35.7084 33.2207 35.73 33.8999 35.6807C34.467 35.6807 34.5573 35.4358 34.5573 34.83V34.6109C34.5573 34.1727 34.3639 33.9922 33.9257 33.9793H32.9333Z" fill="white"/>
<path d="M82.5425 35.7193V38.297H76.9359C76.5096 38.3421 76.0794 38.2626 75.6974 38.0681C75.3154 37.8737 74.9979 37.5726 74.7834 37.2015C74.567 36.8055 74.4477 36.3637 74.4354 35.9126C74.4354 34.0179 74.4354 32.0459 74.4354 30.2028C74.4142 29.9266 74.4529 29.649 74.549 29.3892C74.6452 29.1293 74.7964 28.8933 74.9923 28.6974C75.1882 28.5015 75.4242 28.3503 75.684 28.2542C75.9439 28.1581 76.2214 28.1193 76.4977 28.1406C77.8639 28.1406 79.243 28.1406 80.6092 28.1406C80.8564 28.132 81.1028 28.1722 81.3344 28.2589C81.566 28.3456 81.7783 28.4771 81.959 28.6459C82.1398 28.8147 82.2855 29.0174 82.3878 29.2425C82.4902 29.4677 82.5471 29.7108 82.5554 29.9579C82.6585 30.7313 82.5554 31.5046 82.6585 32.2779C82.6585 32.5486 82.5683 32.6517 82.3363 32.7419L77.7737 34.5335L77.4643 34.6624C77.2452 34.7526 76.9359 34.7397 77.0261 35.1135C77.0513 35.2705 77.1337 35.4127 77.2575 35.5126C77.3812 35.6126 77.5375 35.6632 77.6963 35.6548H82.5425V35.7193ZM76.9359 32.3553L79.7843 31.2855C80.0421 31.1953 80.0421 31.0277 79.7843 30.8859C79.6766 30.8172 79.5512 30.7814 79.4234 30.7828C78.8434 30.7828 78.2506 30.7828 77.6577 30.7828C77.4793 30.7858 77.3075 30.8502 77.1713 30.9653C77.035 31.0804 76.9428 31.2391 76.9101 31.4144C76.923 31.7753 76.9359 32.0202 76.9359 32.3553Z" fill="white"/>
<path d="M49.1347 38.3102V35.7324H53.0014C53.2704 35.735 53.5388 35.7047 53.8005 35.6422C54.1742 35.5519 54.0969 35.2297 54.084 34.9719C54.0711 34.7142 53.7876 34.5337 53.504 34.5337C52.8209 34.5337 52.2151 34.5337 51.4676 34.5337C50.8318 34.5337 50.222 34.2811 49.7724 33.8316C49.3228 33.382 49.0703 32.7722 49.0703 32.1364C49.085 31.296 49.1453 30.457 49.2507 29.6231C49.3379 29.2164 49.5649 28.8531 49.8922 28.5964C50.2196 28.3398 50.6265 28.2059 51.0422 28.2182C52.924 28.2182 54.8187 28.2182 56.7391 28.2182V30.796H56.288C54.9991 30.796 53.6329 30.796 52.3054 30.796C51.7125 30.796 51.416 31.1697 51.6867 31.5951C51.7649 31.6874 51.8614 31.7626 51.9701 31.8158C52.0788 31.8691 52.1973 31.8992 52.3182 31.9044C53.0221 31.9495 53.7281 31.9495 54.432 31.9044C54.9321 31.8884 55.4227 32.043 55.8233 32.3428C56.2238 32.6427 56.5105 33.0698 56.636 33.5542C56.9259 34.578 56.9259 35.6623 56.636 36.6862C56.5192 37.1753 56.2349 37.6081 55.8323 37.9095C55.4297 38.2109 54.9343 38.3617 54.432 38.3359C52.8338 38.3359 51.2356 38.3359 49.6245 38.3359L49.1347 38.3102Z" fill="white"/>
<path d="M71.2519 28.1793H73.0177V30.7571H71.239V38.2842H68.6613V37.7686C68.6613 34.0824 68.6613 30.4091 68.6613 26.7229C68.6651 26.173 68.8663 25.6428 69.2282 25.2288C69.5902 24.8148 70.0888 24.5446 70.6332 24.4673C71.3808 24.3513 72.167 24.3771 72.9661 24.3256V26.9678H72.2444C71.3679 26.9678 71.1746 27.1869 71.2519 28.1793Z" fill="white"/>
<path d="M101.077 31.4659C101.183 31.0637 101.178 30.6402 101.062 30.2406C100.947 29.841 100.724 29.4805 100.419 29.1975C100.137 28.9752 99.7974 28.8368 99.4399 28.7979C97.5323 28.7979 95.5732 28.7979 93.6915 28.7979V28.1019H94.1426C95.8181 28.1019 97.4937 28.1019 99.1563 28.1019C99.508 28.086 99.859 28.1453 100.186 28.2758C100.513 28.4063 100.808 28.6051 101.052 28.8588C101.296 29.1126 101.483 29.4155 101.601 29.7472C101.718 30.079 101.764 30.4321 101.734 30.7828C101.734 32.4713 101.734 34.1597 101.734 35.8481C101.745 36.1777 101.688 36.506 101.567 36.8127C101.445 37.1193 101.263 37.3979 101.029 37.631C100.796 37.8642 100.518 38.047 100.211 38.1682C99.9044 38.2895 99.5761 38.3464 99.2466 38.3357H96.2821C95.9229 38.3541 95.5639 38.2971 95.228 38.1684C94.8922 38.0396 94.587 37.8421 94.3321 37.5884C94.0772 37.3347 93.8781 37.0304 93.7478 36.6952C93.6175 36.36 93.5588 36.0012 93.5755 35.6419C93.5774 34.8438 93.6377 34.0468 93.7559 33.2575C93.8439 32.7501 94.1162 32.293 94.5207 31.9743C94.9251 31.6555 95.4331 31.4974 95.947 31.5304C97.4937 31.5304 99.0275 31.5304 100.574 31.5304L101.077 31.4659ZM101.077 32.1619C99.2852 32.1619 97.5452 32.1619 95.8052 32.1619C95.4348 32.1996 95.088 32.3615 94.8213 32.6212C94.5545 32.881 94.3835 33.2233 94.3359 33.5926C94.2608 34.3333 94.2307 35.078 94.2457 35.8224C94.2456 36.062 94.2936 36.2993 94.3868 36.5201C94.4801 36.7409 94.6167 36.9407 94.7885 37.1078C94.9604 37.2748 95.164 37.4057 95.3874 37.4926C95.6107 37.5796 95.8492 37.6208 96.0888 37.6139C97.1844 37.6139 98.2799 37.6139 99.3755 37.6139C99.5944 37.6265 99.8136 37.5935 100.019 37.517C100.225 37.4405 100.412 37.3222 100.57 37.1696C100.727 37.0169 100.851 36.8333 100.934 36.6302C101.017 36.4272 101.057 36.2091 101.051 35.9899C101.154 34.7397 101.103 33.4766 101.103 32.1619H101.077Z" fill="white"/>
<path d="M91.3844 28.0893V28.7853H87.2857C87.0146 28.7627 86.7422 28.8116 86.4958 28.9269C86.2493 29.0422 86.0373 29.22 85.8808 29.4426C85.6625 29.8378 85.5431 30.2801 85.5328 30.7315C85.5328 32.2653 85.5328 33.7861 85.5328 35.3199C85.4737 35.7533 85.5575 36.1941 85.7714 36.5755C85.9854 36.957 86.318 37.2583 86.7186 37.4337C87.0228 37.5516 87.3461 37.6128 87.6724 37.6141H91.4617V38.2972C90.5724 38.2972 89.683 38.2972 88.7937 38.2972C88.0549 38.3093 87.3167 38.2488 86.5897 38.1168C86.0975 37.9884 85.6635 37.6965 85.3591 37.289C85.0546 36.8815 84.8977 36.3826 84.9142 35.8741C84.9142 34.031 84.9142 32.175 84.9142 30.3319C84.9232 29.7566 85.1506 29.2062 85.5502 28.7922C85.9499 28.3782 86.4919 28.1315 87.0666 28.1021C88.4844 28.0635 89.915 28.0893 91.3844 28.0893Z" fill="white"/>
<path d="M105.356 38.2972H104.673C104.673 38.1683 104.673 38.0523 104.673 37.9492C104.673 35.5003 104.673 33.0643 104.673 30.6283C104.697 30.0735 104.846 29.5313 105.111 29.043C105.306 28.7453 105.575 28.5025 105.891 28.3378C106.207 28.1732 106.559 28.092 106.915 28.1021C107.293 28.0825 107.672 28.0825 108.05 28.1021V28.7981H107.173C106.924 28.7811 106.675 28.8174 106.441 28.9045C106.208 28.9916 105.996 29.1275 105.819 29.3032C105.642 29.4788 105.504 29.6902 105.416 29.9231C105.327 30.1561 105.289 30.4053 105.304 30.6541C105.304 33.0385 105.304 35.423 105.304 37.8074L105.356 38.2972Z" fill="white"/>
<path d="M12.3112 29.1202C12.0808 28.809 11.7684 28.5681 11.409 28.4242C11.1556 28.3197 10.8839 28.2672 10.6099 28.2695H4.16544C3.86546 28.2558 3.56617 28.3087 3.289 28.4242C2.90982 28.5843 2.5868 28.8534 2.361 29.1975C2.12447 29.5428 1.9986 29.9519 2.00011 30.3704V36.1833C2.0001 36.7451 2.22239 37.2841 2.61843 37.6825C3.01448 38.081 3.5521 38.3066 4.11389 38.31H10.5583C11.1223 38.31 11.6633 38.0859 12.0621 37.6871C12.4609 37.2883 12.685 36.7473 12.685 36.1833V30.3833C12.699 29.9331 12.568 29.4903 12.3112 29.1202Z" fill="white"/>
<path d="M3.53391 27.7026C3.74624 26.8533 4.23249 26.0976 4.91746 25.5524C5.60243 25.0072 6.44794 24.7029 7.32323 24.6866C8.2078 24.6792 9.06932 24.9685 9.77021 25.5082C10.4711 26.0479 10.9709 26.8068 11.1899 27.6639L12.4143 28.1795C12.4143 28.115 12.4143 28.0635 12.4143 27.999C12.4145 26.645 11.8819 25.3452 10.9318 24.3806C9.98156 23.4159 8.69001 22.8638 7.33612 22.8435C5.98223 22.8638 4.69068 23.4159 3.74049 24.3806C2.7903 25.3452 2.25776 26.645 2.25791 27.999C2.25148 28.0977 2.25148 28.1968 2.25791 28.2955L3.53391 27.7026Z" fill="white"/>
</svg>
