<svg width="120" height="64" viewBox="0 0 120 64" fill="none" xmlns="http://www.w3.org/2000/svg">
<path fill-rule="evenodd" clip-rule="evenodd" d="M52 46.414C52.1494 46.414 52.2929 46.3554 52.3995 46.2506C52.5062 46.1459 52.5674 46.0034 52.57 45.854V27.514C52.57 26.0474 53.1526 24.6408 54.1897 23.6037C55.2268 22.5666 56.6333 21.984 58.1 21.984H63.5C64.9614 21.9919 66.3603 22.5781 67.3909 23.6143C68.4215 24.6505 69 26.0525 69 27.514V31.414C68.9973 32.8798 68.4139 34.2849 67.3774 35.3214C66.3409 36.3579 64.9358 36.9414 63.47 36.944H55.88C55.7315 36.944 55.589 37.003 55.484 37.108C55.379 37.2131 55.32 37.3555 55.32 37.504C55.32 37.6525 55.379 37.795 55.484 37.9C55.589 38.005 55.7315 38.064 55.88 38.064H63.51C65.2746 38.064 66.9671 37.3637 68.2158 36.1169C69.4645 34.8701 70.1673 33.1786 70.17 31.414V27.514C70.17 25.7521 69.4707 24.0621 68.2258 22.8153C66.9808 21.5685 65.2919 20.8667 63.53 20.864H58.13C56.3654 20.864 54.6729 21.5643 53.4242 22.8111C52.1755 24.058 51.4726 25.7494 51.47 27.514V45.814C51.4646 45.8884 51.474 45.9631 51.4979 46.0338C51.5217 46.1044 51.5594 46.1696 51.6088 46.2255C51.6582 46.2814 51.7182 46.3268 51.7854 46.3592C51.8526 46.3916 51.9255 46.4102 52 46.414Z" fill="white"/>
<path fill-rule="evenodd" clip-rule="evenodd" d="M75.9999 38.1938C76.1493 38.1912 76.2918 38.13 76.3965 38.0234C76.5012 37.9167 76.5599 37.7733 76.5599 37.6238V23.9638C76.5612 23.5611 76.483 23.1621 76.3298 22.7897C76.1767 22.4173 75.9515 22.0788 75.6672 21.7936C75.3829 21.5084 75.0451 21.2821 74.6732 21.1277C74.3013 20.9733 73.9026 20.8938 73.4999 20.8938H71.1099C70.973 20.9121 70.8474 20.9794 70.7564 21.0833C70.6654 21.1872 70.6152 21.3207 70.6152 21.4588C70.6152 21.5969 70.6654 21.7303 70.7564 21.8343C70.8474 21.9382 70.973 22.0055 71.1099 22.0238H73.4599C73.7142 22.0238 73.966 22.074 74.2008 22.1717C74.4356 22.2693 74.6488 22.4123 74.8282 22.5926C75.0075 22.7729 75.1495 22.9868 75.2459 23.2221C75.3423 23.4575 75.3912 23.7095 75.3899 23.9638V37.6238C75.3911 37.7017 75.4081 37.7786 75.4397 37.8498C75.4713 37.921 75.5169 37.9852 75.5738 38.0384C75.6308 38.0916 75.6978 38.1327 75.771 38.1595C75.8442 38.1862 75.9221 38.1978 75.9999 38.1938Z" fill="white"/>
<path d="M75.45 19.344L74.39 18.284C74.3223 18.2196 74.2683 18.142 74.2314 18.0561C74.1946 17.9701 74.1755 17.8775 74.1755 17.784C74.1755 17.6905 74.1946 17.5979 74.2314 17.512C74.2683 17.426 74.3223 17.3485 74.39 17.284L75.45 16.224C75.5129 16.1536 75.5899 16.0972 75.6761 16.0586C75.7623 16.02 75.8556 16 75.95 16C76.0445 16 76.1378 16.02 76.224 16.0586C76.3102 16.0972 76.3872 16.1536 76.45 16.224L77.51 17.284C77.5778 17.3485 77.6318 17.426 77.6687 17.512C77.7055 17.5979 77.7245 17.6905 77.7245 17.784C77.7245 17.8775 77.7055 17.9701 77.6687 18.0561C77.6318 18.142 77.5778 18.2196 77.51 18.284L76.45 19.344C76.3856 19.4118 76.308 19.4658 76.2221 19.5026C76.1361 19.5395 76.0436 19.5585 75.95 19.5585C75.8565 19.5585 75.764 19.5395 75.678 19.5026C75.5921 19.4658 75.5145 19.4118 75.45 19.344Z" fill="white"/>
<path fill-rule="evenodd" clip-rule="evenodd" d="M93.5499 27.804C93.3145 28.0337 92.9987 28.1623 92.6699 28.1623C92.3411 28.1623 92.0252 28.0337 91.7899 27.804L86.3599 22.364C85.8896 21.8943 85.3314 21.5218 84.7171 21.2679C84.1029 21.0139 83.4446 20.8835 82.7799 20.884H80.4499C80.3014 20.884 80.1589 20.943 80.0539 21.0481C79.9489 21.1531 79.8899 21.2955 79.8899 21.444C79.8899 21.5935 79.9485 21.737 80.0533 21.8436C80.158 21.9502 80.3005 22.0114 80.4499 22.014H82.7799C83.2961 22.0138 83.8073 22.1152 84.2843 22.3125C84.7613 22.5098 85.1947 22.7992 85.5599 23.164L90.9999 28.604C91.4439 29.0449 92.0442 29.2924 92.6699 29.2924C93.2956 29.2924 93.8959 29.0449 94.3399 28.604L99.7599 23.184C100.126 22.818 100.561 22.5279 101.04 22.3306C101.519 22.1332 102.032 22.0324 102.55 22.034H104.44C104.581 22.0321 104.716 21.9778 104.82 21.8818C104.923 21.7857 104.988 21.6547 105 21.514C105 21.3655 104.941 21.2231 104.836 21.1181C104.731 21.013 104.588 20.954 104.44 20.954H102.55C101.225 20.9486 99.951 21.4619 98.9999 22.384L93.5499 27.804Z" fill="white"/>
<path fill-rule="evenodd" clip-rule="evenodd" d="M79.8899 37.5139C79.8899 37.6634 79.9485 37.8068 80.0533 37.9135C80.158 38.0201 80.3005 38.0813 80.4499 38.0839H82.7799C84.1235 38.0812 85.4111 37.5453 86.3599 36.5939L91.7899 31.1639C91.9052 31.0478 92.0423 30.9556 92.1933 30.8928C92.3443 30.8299 92.5063 30.7975 92.6699 30.7975C92.8335 30.7975 92.9955 30.8299 93.1465 30.8928C93.2975 30.9556 93.4346 31.0478 93.5499 31.1639L98.9999 36.5639C99.9517 37.5168 101.243 38.0528 102.59 38.0539H104.48C104.617 38.042 104.746 37.9807 104.841 37.8814C104.937 37.7821 104.993 37.6516 105 37.5139C105 37.3654 104.941 37.2229 104.836 37.1179C104.731 37.0129 104.588 36.9539 104.44 36.9539H102.55C102.031 36.9536 101.518 36.851 101.039 36.652C100.561 36.4529 100.126 36.1613 99.7599 35.7939L94.3399 30.3839C94.1214 30.1632 93.8613 29.988 93.5746 29.8684C93.288 29.7488 92.9805 29.6873 92.6699 29.6873C92.3593 29.6873 92.0518 29.7488 91.7652 29.8684C91.4785 29.988 91.2184 30.1632 90.9999 30.3839L85.5599 35.8139C84.8235 36.5535 83.8236 36.9707 82.7799 36.9739H80.4499C80.3048 36.9738 80.1653 37.03 80.0608 37.1308C79.9564 37.2315 79.8951 37.3689 79.8899 37.5139Z" fill="white"/>
<path d="M38.18 40.9739C37.6067 40.9757 37.0388 40.8645 36.5085 40.6466C35.9783 40.4287 35.4963 40.1083 35.09 39.7039L30.63 35.2439C30.4745 35.0894 30.2642 35.0027 30.045 35.0027C29.8258 35.0027 29.6155 35.0894 29.46 35.2439L25 39.7139C24.5944 40.1227 24.1113 40.4464 23.579 40.6662C23.0467 40.886 22.4759 40.9974 21.9 40.9939H21L26.65 46.6439C27.0688 47.063 27.5661 47.3954 28.1135 47.6222C28.6608 47.849 29.2475 47.9658 29.84 47.9658C30.4325 47.9658 31.0192 47.849 31.5665 47.6222C32.1139 47.3954 32.6112 47.063 33.03 46.6439L38.7 40.9739H38.18Z" fill="white"/>
<path d="M21.9 25.2039C22.4777 25.2065 23.0491 25.3236 23.5812 25.5485C24.1133 25.7733 24.5955 26.1015 25 26.5139L29.47 30.9939C29.6255 31.1484 29.8358 31.2351 30.055 31.2351C30.2742 31.2351 30.4845 31.1484 30.64 30.9939L35.09 26.5139C35.4945 26.1063 35.9759 25.7832 36.5064 25.5635C37.0369 25.3437 37.6058 25.2317 38.18 25.2339H38.72L33.05 19.5739C32.6318 19.1536 32.1348 18.8201 31.5873 18.5925C31.0399 18.365 30.4529 18.2478 29.86 18.2478C29.2671 18.2478 28.6801 18.365 28.1327 18.5925C27.5852 18.8201 27.0882 19.1536 26.67 19.5739L21 25.2039H21.9Z" fill="white"/>
<path d="M43.4001 29.9039L40.0001 26.5139C39.9237 26.5448 39.8424 26.5617 39.7601 26.5639H38.1801C37.3697 26.5681 36.5937 26.8914 36.0201 27.4639L31.5601 31.9139C31.3634 32.1146 31.1284 32.2738 30.869 32.382C30.6096 32.4902 30.3311 32.5453 30.0501 32.5439C29.77 32.5449 29.4925 32.4907 29.2333 32.3843C28.9742 32.2779 28.7387 32.1215 28.5401 31.9239L24.0601 27.4139C23.4878 26.8396 22.7109 26.5159 21.9001 26.5139H20.0001C19.9209 26.5304 19.8393 26.5304 19.7601 26.5139L16.3201 29.9039C15.4756 30.7528 15.0015 31.9015 15.0015 33.0989C15.0015 34.2963 15.4756 35.4451 16.3201 36.2939L19.7601 39.7339C19.836 39.7188 19.9142 39.7188 19.9901 39.7339H21.9001C22.7107 39.7308 23.4871 39.4073 24.0601 38.8339L28.5401 34.3639C28.9451 33.9799 29.482 33.7658 30.0401 33.7658C30.5982 33.7658 31.1351 33.9799 31.5401 34.3639L36.0001 38.7739C36.5753 39.3427 37.3512 39.6624 38.1601 39.6639H39.7201C39.8024 39.6661 39.8837 39.6831 39.9601 39.7139L43.3801 36.2939C44.2273 35.4477 44.705 34.3005 44.7087 33.103C44.7125 31.9056 44.242 30.7554 43.4001 29.9039Z" fill="white"/>
<path d="M56.6799 44.2939C56.396 44.3059 56.1142 44.3495 55.8399 44.4239V45.5139C56.0479 45.5907 56.2683 45.6281 56.4899 45.6239C57.0499 45.6239 57.3199 45.4339 57.3199 44.9439C57.3199 44.4539 57.0999 44.2939 56.6799 44.2939ZM55.6799 46.3639V44.1639H55.8399V44.2539C56.1247 44.1789 56.416 44.132 56.7099 44.1139C56.9175 44.0985 57.1235 44.159 57.2899 44.2839C57.3797 44.3714 57.4488 44.4779 57.492 44.5956C57.5353 44.7133 57.5516 44.8391 57.5399 44.9639C57.5503 45.1038 57.5222 45.2439 57.4588 45.3691C57.3954 45.4942 57.2989 45.5996 57.1799 45.6739C56.9775 45.7717 56.7547 45.8197 56.5299 45.8139C56.3029 45.8143 56.077 45.7806 55.8599 45.7139V46.3639H55.6799Z" fill="white"/>
<path d="M58.9199 44.284C58.3599 44.284 58.1099 44.464 58.1099 44.954C58.1099 45.444 58.3599 45.644 58.9199 45.644C59.4799 45.644 59.7299 45.474 59.7299 44.984C59.7299 44.494 59.4799 44.284 58.9199 44.284ZM59.6399 45.644C59.4252 45.7784 59.1721 45.8382 58.9199 45.814C58.6681 45.8332 58.4166 45.7738 58.1999 45.644C58.0991 45.5635 58.0199 45.4592 57.9693 45.3405C57.9187 45.2218 57.8983 45.0925 57.9099 44.964C57.9008 44.8358 57.9224 44.7072 57.9728 44.589C58.0233 44.4707 58.1011 44.3662 58.1999 44.284C58.4235 44.1722 58.67 44.114 58.9199 44.114C59.1699 44.114 59.4164 44.1722 59.6399 44.284C59.7407 44.3645 59.82 44.4688 59.8706 44.5874C59.9212 44.7061 59.9416 44.8355 59.9299 44.964C59.9435 45.0926 59.9239 45.2226 59.8732 45.3416C59.8224 45.4606 59.7422 45.5647 59.6399 45.644Z" fill="white"/>
<path d="M62.2899 45.7738L61.6599 44.4338L60.9999 45.7738H60.8299L60.1599 44.1638H60.3699L60.9999 45.5138L61.5999 44.1638H61.7699L62.3699 45.5138L62.9099 44.1638H63.1099L62.4499 45.7738H62.2899Z" fill="white"/>
<path d="M64.33 44.2839C63.81 44.2839 63.63 44.5139 63.6 44.8439H65.05C65 44.5139 64.85 44.2839 64.33 44.2839ZM64.33 45.8139C64.0936 45.8387 63.856 45.7785 63.66 45.6439C63.5708 45.556 63.5022 45.4495 63.4589 45.3319C63.4157 45.2144 63.399 45.0887 63.41 44.9639C63.4029 44.8335 63.4264 44.7033 63.4784 44.5835C63.5305 44.4637 63.6098 44.3577 63.71 44.2739C63.8996 44.1595 64.1188 44.1038 64.34 44.1139C64.5648 44.0999 64.7883 44.1558 64.98 44.2739C65.0853 44.3637 65.1662 44.4786 65.2152 44.6079C65.2641 44.7373 65.2796 44.877 65.26 45.0139H63.59C63.59 45.3439 63.71 45.6439 64.34 45.6439C64.6186 45.6354 64.8961 45.6053 65.17 45.5539V45.7239C64.8892 45.7741 64.6051 45.8042 64.32 45.8139H64.33Z" fill="white"/>
<path d="M65.79 45.774V44.164H65.94V44.254C66.1993 44.172 66.4683 44.1249 66.74 44.114V44.294C66.4818 44.3013 66.226 44.3451 65.98 44.424V45.774H65.79Z" fill="white"/>
<path d="M67.8801 44.284C67.3601 44.284 67.1901 44.514 67.1501 44.844H68.6001C68.5901 44.514 68.4001 44.284 67.8801 44.284ZM67.8801 45.814C67.6436 45.8388 67.4061 45.7785 67.2101 45.644C67.1209 45.5561 67.0522 45.4496 67.009 45.332C66.9658 45.2145 66.9491 45.0888 66.9601 44.964C66.9553 44.8339 66.9797 44.7043 67.0316 44.5849C67.0835 44.4655 67.1616 44.3593 67.2601 44.274C67.4496 44.1596 67.6689 44.1039 67.8901 44.114C68.115 44.0979 68.3392 44.154 68.5301 44.274C68.6377 44.3619 68.7202 44.4765 68.7694 44.6065C68.8185 44.7364 68.8326 44.877 68.8101 45.014H67.1501C67.1501 45.344 67.2601 45.644 67.8901 45.644C68.1687 45.636 68.4462 45.6059 68.7201 45.554V45.724C68.4393 45.7748 68.1552 45.8049 67.8701 45.814H67.8801Z" fill="white"/>
<path d="M70.87 44.3939C70.6609 44.3215 70.4413 44.2844 70.22 44.2839C69.66 44.2839 69.39 44.4739 69.39 44.9639C69.39 45.4539 69.61 45.6439 70.03 45.6439C70.3134 45.627 70.5947 45.5835 70.87 45.5139V44.3939ZM70.87 45.7739V45.6739C70.582 45.7497 70.2873 45.7966 69.99 45.8139C69.7869 45.8315 69.5843 45.7747 69.42 45.6539C69.33 45.5645 69.2609 45.4562 69.2177 45.3369C69.1745 45.2176 69.1582 45.0902 69.17 44.9639C69.1615 44.8256 69.1904 44.6876 69.2538 44.5644C69.3171 44.4412 69.4126 44.3374 69.53 44.2639C69.7299 44.1582 69.954 44.1065 70.18 44.1139C70.4067 44.1184 70.6319 44.1521 70.85 44.2139V43.5139H71.04V45.8039L70.87 45.7739Z" fill="white"/>
<path d="M73.82 44.2939C73.5361 44.3059 73.2543 44.3495 72.98 44.4239V45.5139C73.1882 45.5901 73.4085 45.6273 73.6301 45.6239C74.1901 45.6239 74.46 45.4339 74.46 44.9439C74.46 44.4539 74.24 44.2939 73.82 44.2939ZM74.3 45.6739C74.0976 45.7717 73.8748 45.8197 73.6501 45.8139C73.4051 45.813 73.162 45.7725 72.93 45.6939V45.7739H72.8V43.5139H73V44.2839C73.2814 44.2089 73.5695 44.162 73.8601 44.1439C74.0643 44.1301 74.2667 44.1904 74.43 44.3139C74.5198 44.4014 74.5889 44.5079 74.6321 44.6256C74.6754 44.7432 74.6918 44.8691 74.68 44.9939C74.6829 45.1308 74.6492 45.266 74.5824 45.3855C74.5156 45.505 74.4181 45.6046 74.3 45.6739Z" fill="white"/>
<path d="M74.9101 46.394V46.214H75.1501C75.2582 46.2221 75.3659 46.194 75.4564 46.1343C75.5469 46.0746 75.615 45.9866 75.6501 45.884L75.7201 45.754L74.8701 44.144H75.0901L75.8101 45.514L76.5001 44.124H76.7101L75.8101 45.934C75.7603 46.0715 75.6669 46.189 75.5441 46.2684C75.4214 46.3479 75.276 46.3849 75.1301 46.374L74.9101 46.394Z" fill="white"/>
<path d="M79.32 44.8539H78.7V45.4239H79.33C79.76 45.4239 79.92 45.4239 79.92 45.1339C79.92 44.8439 79.7 44.8539 79.32 44.8539ZM79.21 43.9339H78.7V44.5139H79.21C79.64 44.5139 79.81 44.5139 79.81 44.2239C79.81 43.9339 79.59 43.9339 79.21 43.9339ZM80.21 45.6239C79.8958 45.7614 79.5507 45.8132 79.21 45.7739H78.26V43.5839H79.19C79.5069 43.5478 79.8278 43.5961 80.12 43.7239C80.1938 43.7698 80.2533 43.8351 80.2922 43.9128C80.331 43.9905 80.3476 44.0774 80.34 44.1639C80.3483 44.271 80.3189 44.3777 80.2568 44.4653C80.1947 44.553 80.1038 44.6162 80 44.6439C80.28 44.7139 80.46 44.8539 80.46 45.1639C80.4647 45.2598 80.4405 45.3549 80.3906 45.4369C80.3407 45.5189 80.2673 45.584 80.18 45.6239H80.21Z" fill="white"/>
<path d="M82.32 45.0938H81.74C81.41 45.0938 81.3 45.1538 81.3 45.3038C81.3 45.4538 81.39 45.5238 81.65 45.5238C81.8755 45.5135 82.0997 45.4834 82.32 45.4338V45.0938ZM82.42 45.7738V45.6738C82.1331 45.7545 81.8377 45.8015 81.54 45.8138C81.3695 45.825 81.1994 45.7868 81.05 45.7038C80.9911 45.6578 80.9441 45.5984 80.9128 45.5306C80.8815 45.4628 80.8668 45.3885 80.87 45.3138C80.8644 45.2217 80.8873 45.13 80.9356 45.0513C80.9839 44.9726 81.0552 44.9106 81.14 44.8738C81.3349 44.8022 81.5426 44.7716 81.75 44.7838C81.9432 44.7741 82.1368 44.7741 82.33 44.7838C82.33 44.5238 82.17 44.4438 81.71 44.4438H81.12V44.1138C81.35 44.1138 81.6 44.1138 81.81 44.1138C82.0692 44.0905 82.3296 44.1426 82.56 44.2638C82.6419 44.328 82.7054 44.4126 82.744 44.5092C82.7826 44.6058 82.795 44.7109 82.78 44.8138V45.8138L82.42 45.7738Z" fill="white"/>
<path d="M84.8801 45.774V44.884C84.8801 44.584 84.7301 44.484 84.4601 44.484C84.2372 44.4942 84.016 44.5278 83.8001 44.584V45.774H83.3501V44.164H83.7201V44.264C84.0002 44.1819 84.2887 44.1316 84.5801 44.114C84.7785 44.0974 84.9756 44.1584 85.1301 44.284C85.1965 44.3479 85.2473 44.4263 85.2785 44.513C85.3097 44.5997 85.3205 44.6924 85.3101 44.784V45.784L84.8801 45.774Z" fill="white"/>
<path d="M86.6 45.814C86.3875 45.8327 86.1751 45.776 86 45.654C85.9071 45.5663 85.8353 45.4586 85.7903 45.3391C85.7452 45.2195 85.728 45.0912 85.74 44.964C85.734 44.8307 85.7609 44.698 85.8185 44.5776C85.876 44.4572 85.9625 44.3529 86.07 44.274C86.2864 44.1536 86.5329 44.0981 86.78 44.114H87.35V44.514C87.1802 44.5043 87.0099 44.5043 86.84 44.514C86.41 44.514 86.21 44.644 86.21 45.014C86.21 45.384 86.36 45.514 86.71 45.514C86.9384 45.5048 87.1658 45.4781 87.39 45.434V45.764C87.1288 45.8051 86.8644 45.8218 86.6 45.814Z" fill="white"/>
<path d="M88.7199 44.4539C88.2899 44.4539 88.0999 44.5839 88.0999 44.9539C88.0999 45.3239 88.2899 45.484 88.7199 45.484C89.1499 45.484 89.3299 45.344 89.3299 44.984C89.3299 44.624 89.1499 44.4539 88.7199 44.4539ZM89.4899 45.6539C89.2445 45.7571 88.981 45.8102 88.7149 45.8102C88.4487 45.8102 88.1853 45.7571 87.9399 45.6539C87.845 45.5668 87.7693 45.461 87.7175 45.3431C87.6657 45.2251 87.6389 45.0977 87.6389 44.969C87.6389 44.8402 87.6657 44.7128 87.7175 44.5948C87.7693 44.4769 87.845 44.3711 87.9399 44.2839C88.1777 44.1522 88.4489 44.0931 88.7199 44.1139C88.9876 44.0945 89.2552 44.1536 89.4899 44.2839C89.5939 44.3621 89.6762 44.4657 89.7287 44.5848C89.7812 44.7038 89.8023 44.8344 89.7899 44.9639C89.8021 45.0949 89.781 45.2269 89.7286 45.3475C89.6761 45.4682 89.594 45.5736 89.4899 45.6539Z" fill="white"/>
<path d="M92.39 45.814C92.1124 45.8325 91.837 45.7548 91.61 45.594C91.4848 45.4779 91.3881 45.3345 91.3274 45.175C91.2667 45.0154 91.2436 44.844 91.26 44.674C91.2522 44.4939 91.2893 44.3146 91.3678 44.1523C91.4463 43.99 91.5639 43.8497 91.71 43.744C91.9911 43.5905 92.3105 43.5211 92.63 43.544C92.8864 43.5296 93.1435 43.5296 93.4 43.544V43.934C93.16 43.934 92.88 43.934 92.65 43.934C92.03 43.934 91.77 44.174 91.77 44.674C91.77 45.174 92.01 45.424 92.47 45.424C92.8068 45.414 93.1418 45.3704 93.47 45.294V45.684C93.1145 45.7592 92.7531 45.8027 92.39 45.814Z" fill="white"/>
<path d="M94.77 44.4039C94.4 44.4039 94.25 44.5339 94.22 44.7839H95.31C95.3 44.5139 95.14 44.4039 94.77 44.4039ZM94.7 45.8139C94.4607 45.8344 94.2214 45.7746 94.02 45.6439C93.9284 45.5573 93.8575 45.4513 93.8125 45.3336C93.7675 45.2158 93.7495 45.0895 93.76 44.9639C93.7537 44.8351 93.7775 44.7065 93.8296 44.5885C93.8817 44.4704 93.9606 44.3662 94.06 44.2839C94.2735 44.1555 94.5214 44.0961 94.77 44.1139C95.0136 44.101 95.2561 44.1564 95.47 44.2739C95.581 44.3723 95.665 44.4975 95.714 44.6375C95.763 44.7775 95.7754 44.9278 95.75 45.0739H94.22C94.22 45.3239 94.36 45.4839 94.81 45.4839C95.0985 45.4753 95.3859 45.4452 95.67 45.3939V45.7139C95.3498 45.773 95.0254 45.8064 94.7 45.8139Z" fill="white"/>
<path d="M97.76 45.7739V44.8839C97.76 44.5839 97.61 44.4839 97.34 44.4839C97.117 44.4935 96.8958 44.527 96.68 44.5839V45.7739H96.23V44.1639H96.6V44.2639C96.8836 44.182 97.1753 44.1317 97.47 44.1139C97.6682 44.0994 97.8645 44.1601 98.02 44.2839C98.0846 44.3488 98.1335 44.4276 98.1629 44.5142C98.1924 44.6009 98.2017 44.6931 98.19 44.7839V45.7839L97.76 45.7739Z" fill="white"/>
<path d="M99.49 45.8138C99.3894 45.8242 99.2878 45.8084 99.1949 45.7682C99.1021 45.7279 99.0212 45.6644 98.96 45.5838C98.8744 45.4391 98.836 45.2714 98.85 45.1038V44.5138H98.52V44.1838H98.85V43.6938H99.25V44.1838H99.89V44.5138H99.25V45.0338C99.2275 45.136 99.2275 45.2417 99.25 45.3438C99.2787 45.3942 99.3214 45.4351 99.3728 45.4618C99.4243 45.4884 99.4824 45.4995 99.54 45.4938C99.6464 45.5049 99.7536 45.5049 99.86 45.4938V45.8238C99.7366 45.8304 99.6129 45.8271 99.49 45.8138Z" fill="white"/>
<path d="M100.37 45.774V44.164H100.73V44.264C100.989 44.1779 101.258 44.1274 101.53 44.114H101.59V44.514H101.43C101.217 44.5123 101.006 44.5392 100.8 44.594V45.784L100.37 45.774Z" fill="white"/>
<path d="M103.25 45.0939H102.66C102.33 45.0939 102.22 45.1539 102.22 45.3039C102.22 45.4539 102.32 45.5239 102.57 45.5239C102.799 45.5129 103.026 45.4828 103.25 45.4339V45.0939ZM103.34 45.7739V45.6739C103.053 45.7545 102.758 45.8015 102.46 45.8139C102.289 45.825 102.119 45.7868 101.97 45.7039C101.911 45.6579 101.864 45.5985 101.833 45.5307C101.801 45.4628 101.787 45.3885 101.79 45.3139C101.785 45.2206 101.809 45.128 101.86 45.0492C101.91 44.9703 101.983 44.9091 102.07 44.8739C102.261 44.8022 102.466 44.7715 102.67 44.7839C102.84 44.7839 103.07 44.7839 103.26 44.7839C103.26 44.5239 103.09 44.4439 102.64 44.4439L102 44.5139V44.1839C102.23 44.1839 102.48 44.1839 102.69 44.1839C102.949 44.1582 103.21 44.2104 103.44 44.3339C103.524 44.3969 103.589 44.481 103.629 44.5777C103.67 44.6744 103.684 44.78 103.67 44.8839V45.8839L103.34 45.7739Z" fill="white"/>
<path d="M104.27 43.5139H104.72V45.8039H104.27V43.5139Z" fill="white"/>
</svg>
