<svg width="120" height="65" viewBox="0 0 120 65" fill="none" xmlns="http://www.w3.org/2000/svg">
<rect x="30.6" y="3.1" width="58.8" height="58.8" rx="6.6" stroke="white" stroke-width="1.2"/>
<path fill-rule="evenodd" clip-rule="evenodd" d="M84.7611 11.6067H84.0068V13.7395H84.3476V12.8133H84.6266C84.8607 12.8133 84.9321 12.9151 84.9379 13.1476C84.9399 13.2028 84.9409 13.2535 84.9418 13.3018C84.9434 13.389 84.9448 13.4681 84.9525 13.5502C84.9533 13.6174 84.9733 13.6831 85.01 13.7395H85.3955C85.3645 13.7197 85.339 13.6924 85.3213 13.6602C85.3036 13.6281 85.2943 13.592 85.2942 13.5553C85.29 13.4699 85.2877 13.3685 85.2854 13.2708C85.2842 13.2192 85.2831 13.1686 85.2817 13.1219C85.2708 12.8221 85.1594 12.7055 84.9474 12.6839V12.6798C85.1804 12.6437 85.3033 12.4311 85.3033 12.1546C85.3121 12.0811 85.3042 12.0066 85.2802 11.9366C85.2562 11.8665 85.2166 11.8028 85.1645 11.7502C85.1124 11.6975 85.0491 11.6573 84.9792 11.6324C84.9094 11.6076 84.8348 11.5988 84.7611 11.6067ZM84.7572 12.5387C84.7136 12.5546 84.6669 12.5607 84.6205 12.5564H84.3476V11.8635H84.6385C84.863 11.8635 84.9616 11.9832 84.9616 12.2107C84.9666 12.2568 84.9612 12.3035 84.9459 12.3473C84.9306 12.3912 84.9058 12.4311 84.8731 12.4642C84.8405 12.4973 84.8009 12.5227 84.7572 12.5387Z" fill="white"/>
<path fill-rule="evenodd" clip-rule="evenodd" d="M84.6441 14.3933C84.2979 14.3936 83.9593 14.2914 83.6713 14.0996C83.3832 13.9078 83.1587 13.6351 83.026 13.3159C82.8933 12.9967 82.8585 12.6454 82.9259 12.3065C82.9934 11.9676 83.16 11.6562 83.4048 11.4118C83.6496 11.1674 83.9615 11.001 84.3011 10.9336C84.6407 10.8661 84.9927 10.9008 85.3126 11.033C85.6325 11.1653 85.9058 11.3893 86.0981 11.6767C86.2904 11.9641 86.3929 12.3019 86.3928 12.6475C86.3923 13.1102 86.208 13.5539 85.8801 13.8812C85.5523 14.2085 85.1078 14.3926 84.6441 14.3933ZM84.6441 11.1197C84.3414 11.1196 84.0455 11.2092 83.7938 11.3769C83.542 11.5447 83.3458 11.7832 83.2299 12.0623C83.114 12.3414 83.0836 12.6485 83.1426 12.9448C83.2016 13.2411 83.3473 13.5133 83.5613 13.727C83.7753 13.9406 84.048 14.0862 84.3449 14.1452C84.6417 14.2042 84.9495 14.174 85.2292 14.0584C85.5089 13.9429 85.7479 13.7472 85.9162 13.496C86.0844 13.2449 86.1742 12.9496 86.1743 12.6475C86.174 12.2425 86.0127 11.8542 85.7258 11.5678C85.4389 11.2814 85.0499 11.1202 84.6441 11.1197Z" fill="white"/>
<path d="M78.1774 22.0589C78.0714 18.9563 78.8778 16.494 82.3463 15.7098C84.5569 15.2086 85.3965 15.7825 85.8215 16.3372C86.2303 16.8665 86.3882 17.5803 86.3882 18.5801L86.3905 18.7637L83.677 19.4072L83.6749 19.0304C83.677 17.8447 83.3467 17.3938 82.4838 17.6094C81.4576 17.8666 81.043 18.8387 81.043 20.7714C81.043 21.2732 81.0446 21.4738 81.0455 21.5817C81.0458 21.6213 81.046 21.6483 81.046 21.6732C81.046 23.6374 81.315 24.5365 82.4977 24.2894C83.5235 24.0778 83.6641 23.1787 83.6807 22.3905C83.6827 22.2668 83.6878 21.8706 83.6878 21.8706L86.3973 21.2318C86.3973 21.2318 86.4 21.4315 86.4 21.6536C86.3932 24.2292 85.0331 25.8523 82.4848 26.4441C78.974 27.2655 78.2864 25.2408 78.1774 22.0589Z" fill="white"/>
<path d="M62.8956 30.7639L62.8909 20.5768L65.5553 19.9457V21.2812C65.5553 21.2812 66.2455 19.5249 67.8472 19.1173C68.0864 19.0404 68.3409 19.0233 68.5882 19.0676V21.6669C68.1085 21.6731 67.6345 21.7716 67.1922 21.9569C66.2076 22.3449 65.7121 23.1916 65.7121 24.4841L65.7138 30.1092L62.8956 30.7639Z" fill="white"/>
<path d="M48.8497 34.0765C48.8497 34.0765 48.4165 33.4283 48.4165 31.1362V26.0638L47.0455 26.3893V24.2998L48.4196 23.976V21.6982L51.2527 21.0303V23.3081L53.2547 22.8335V24.9207L51.2527 25.3949C51.2527 25.3949 51.2497 29.5507 51.2527 30.56C51.2527 32.9084 51.8772 33.3593 51.8772 33.3593L48.8497 34.0765Z" fill="white"/>
<path fill-rule="evenodd" clip-rule="evenodd" d="M54.364 23.8699C53.8092 24.8839 53.5508 26.2051 53.5508 28.0162C53.5508 30.9859 54.4513 33.0443 57.8287 32.2442C61.3941 31.403 61.6789 28.9781 61.7013 28.0006C61.705 27.7654 61.6989 27.5558 61.6989 27.5558L59.1337 28.1693C59.1337 28.1693 59.1279 28.4684 59.1157 28.586C59.0412 29.3154 58.7787 29.9053 57.8352 30.104C56.7429 30.3352 56.3815 29.5189 56.3815 27.7988V27.7106L61.8574 26.4262C61.8574 26.4262 61.8533 25.9973 61.8699 25.1168C61.9133 22.6547 60.7916 20.8187 57.6834 21.5241C56.1065 21.8824 55.0241 22.6666 54.364 23.8699ZM56.3934 25.9871C56.414 24.5154 56.8899 23.6272 57.7972 23.4217C58.8038 23.1918 59.1479 23.7783 59.1527 24.8893C59.1533 25.1191 59.1527 25.2658 59.1479 25.3324L56.3934 25.9871Z" fill="white"/>
<path fill-rule="evenodd" clip-rule="evenodd" d="M72.2672 22.4354C70.1822 23.2963 68.797 24.0427 68.797 26.4026C68.797 28.1379 69.8808 29.4037 71.9274 28.9221C73.8763 28.4651 74.4415 27.0441 74.4415 27.0441C74.5293 27.3621 74.645 27.6716 74.7873 27.9692L77.3681 27.3598C77.3681 27.3598 76.9624 27.0401 76.9624 24.8579V20.3459C76.959 18.4406 76.0266 17.2157 73.2297 17.8589C71.077 18.3561 69.83 19.3055 69.4096 20.7167C69.2716 21.2214 69.2104 21.7439 69.2281 22.2668L71.857 21.6472C71.8535 21.4727 71.8593 21.2982 71.8746 21.1243C71.8849 20.8076 72.0021 20.5037 72.2072 20.2618C72.4123 20.0198 72.6932 19.8542 73.0045 19.7916C73.9379 19.554 74.201 20.0383 74.1906 20.6045C74.1828 21.2771 74.1421 21.6614 72.2672 22.4354ZM72.7996 23.9825C73.2784 23.7528 73.7376 23.4844 74.1726 23.1801V24.5993C74.1726 25.6799 73.5928 26.4577 72.7576 26.6679C71.9789 26.8599 71.5505 26.4067 71.5505 25.7165C71.5505 24.9194 71.9393 24.402 72.7996 23.9825Z" fill="white"/>
<path d="M34.0362 41.2178C33.7416 41.2174 33.4526 41.1378 33.1996 40.9873C32.9466 40.8368 32.7389 40.621 32.5984 40.3627C32.4579 40.1043 32.3898 39.8129 32.4012 39.5192C32.4127 39.2254 32.5033 38.9402 32.6635 38.6935L32.6818 38.6699L32.7126 38.6618L36.5662 37.7539V40.6746L36.5062 40.6884C35.6321 40.8983 34.5872 41.1373 34.3722 41.1829C34.2617 41.2063 34.1491 41.2179 34.0362 41.2178Z" fill="white"/>
<path d="M32.8798 44.4766C33.1866 44.7824 33.6026 44.9542 34.0362 44.9541C34.1489 44.9545 34.2615 44.944 34.3722 44.9226C34.5872 44.8797 35.6321 44.638 36.5062 44.4288L36.5662 44.4132V41.4926L32.7126 42.4001L32.6818 42.4079L32.6635 42.4352C32.4907 42.6992 32.3991 43.0079 32.4 43.3232C32.4004 43.7559 32.573 44.1708 32.8798 44.4766Z" fill="white"/>
<path d="M34.0362 48.6975C33.6025 48.6973 33.1865 48.5252 32.8798 48.2192C32.573 47.9132 32.4004 47.4982 32.4 47.0653C32.3988 46.7499 32.4904 46.4412 32.6635 46.1774L32.6818 46.1479L36.5662 45.2343V48.155L36.5062 48.1706C35.583 48.3923 34.5578 48.6235 34.3722 48.6644C34.2616 48.6865 34.149 48.6976 34.0362 48.6975Z" fill="white"/>
<path d="M33.5804 21.2967L33.5814 37.6388L36.5659 36.9344V20.5926L33.5804 21.2967Z" fill="white"/>
<path d="M41.0177 36.2485C41.0177 35.761 40.8236 35.2934 40.4782 34.9487C40.1327 34.604 39.6642 34.4103 39.1757 34.4103C38.6872 34.4103 38.2187 34.604 37.8733 34.9487C37.5278 35.2934 37.3338 35.761 37.3338 36.2485L37.3368 51.5226C37.3385 52.8416 37.864 54.1061 38.7982 55.0391C39.7325 55.9721 40.9993 56.4975 42.3209 56.5C43.7153 56.5 47.535 56.4932 47.535 56.4932L47.5367 50.1212C47.5377 46.6398 47.5384 43.0961 47.5384 43.0154C47.5389 42.6192 47.4413 42.2291 47.2545 41.8796C47.0676 41.5302 46.7971 41.2321 46.4671 41.012L41.82 37.8621L41.819 45.015C41.819 45.1199 41.7773 45.2205 41.7029 45.2946C41.6286 45.3688 41.5278 45.4104 41.4227 45.4104C41.3176 45.4104 41.2169 45.3688 41.1425 45.2946C41.0682 45.2205 41.0265 45.1199 41.0265 45.015L41.0254 43.9803C41.023 41.8224 41.0177 36.9826 41.0177 36.2485Z" fill="white"/>
<path d="M41.9523 25.5881C42.4109 25.2342 42.9407 24.9834 43.5053 24.8526C45.6323 24.3547 46.3161 25.5935 46.3161 27.3656V34.675L43.4847 35.3375L43.4827 28.428C43.4827 27.3474 42.975 27.1304 42.367 27.2636C41.5589 27.4413 40.9933 28.3475 40.9933 29.4819V34.2176C40.613 33.8829 40.1474 33.6596 39.6479 33.5725C39.1484 33.4854 38.6344 33.5377 38.1629 33.7238L38.1599 26.3891L40.848 25.7544V26.9029C41.117 26.3904 41.4937 25.942 41.9523 25.5881Z" fill="white"/>
</svg>
