<svg width="120" height="64" viewBox="0 0 120 64" fill="none" xmlns="http://www.w3.org/2000/svg">
<g clip-path="url(#clip0_1_59)">
<path fill-rule="evenodd" clip-rule="evenodd" d="M113.656 25.3177L75.4508 8.22237C74.5039 7.79866 73.3958 8.22957 72.9758 9.18482L64.2632 29H91.5C92.5 29 93 34.5 92.5 38L92.5 47.0486L102.194 51.3863C103.141 51.81 104.249 51.3791 104.669 50.4239L114.61 27.8145C115.03 26.8592 114.603 25.7414 113.656 25.3177ZM80.0858 19.8962L75.7413 17.9523C75.2999 17.7548 74.7833 17.9556 74.5876 18.4009L73.3756 21.1573C73.1798 21.6026 73.3789 22.1236 73.8203 22.3212L78.1648 24.2651C78.6062 24.4626 79.1227 24.2618 79.3185 23.8165L80.5305 21.0601C80.7263 20.6148 80.5272 20.0937 80.0858 19.8962ZM96.4007 45.3871C96.9098 45.5516 97.4543 45.5698 97.9729 45.4397L98.0128 45.4575L97.98 45.4661C98.2869 46.0427 98.7761 46.4991 99.3699 46.7627C99.7166 46.9161 100.09 46.9988 100.468 47.006C100.847 47.0131 101.223 46.9447 101.575 46.8045C101.928 46.6644 102.249 46.4553 102.52 46.1894C102.792 45.9235 103.009 45.6059 103.159 45.2551C103.423 44.6638 103.481 43.9993 103.323 43.3704C103.229 43.0011 103.064 42.6541 102.837 42.3492C102.609 42.0444 102.325 41.7876 102 41.5937C101.674 41.3998 101.314 41.2725 100.94 41.219C100.572 41.1666 100.199 41.1863 99.8388 41.277L99.8068 41.2627L99.8183 41.2597C99.5647 40.7791 99.1824 40.3802 98.7148 40.1084C98.2472 39.8366 97.7133 39.703 97.174 39.7228C96.6347 39.7425 96.1118 39.9149 95.665 40.2202C95.2182 40.5255 94.8656 40.9514 94.6473 41.4493C94.429 41.9472 94.354 42.4969 94.4307 43.0358C94.5074 43.5746 94.7328 44.0809 95.0812 44.4966C95.4295 44.9124 95.8868 45.221 96.4007 45.3871ZM106.178 28.4518C106.081 28.4074 106.005 28.3263 105.968 28.226C105.93 28.1258 105.933 28.0146 105.976 27.9166C105.997 27.8685 106.027 27.8252 106.065 27.7889C106.102 27.7527 106.147 27.7243 106.195 27.7054C106.244 27.6865 106.296 27.6774 106.348 27.6787C106.4 27.6801 106.451 27.6917 106.499 27.7131C106.596 27.7576 106.671 27.8383 106.711 27.9381C106.75 28.0379 106.749 28.1491 106.708 28.2483C106.664 28.3459 106.584 28.422 106.484 28.4601C106.385 28.4982 106.275 28.4952 106.178 28.4518ZM107.269 28.497C107.37 28.2327 107.37 27.9397 107.269 27.6753L107.246 27.6829L107.762 27.502C107.916 27.8942 107.916 28.3309 107.762 28.7232C107.58 29.1085 107.255 29.4062 106.858 29.5524L106.648 29.0473C106.917 28.9509 107.139 28.7539 107.269 28.497ZM108.479 27.2306L108.484 27.2442L108.479 27.2456V27.2306ZM108.484 27.2442L109.002 27.0949C109.249 27.7976 109.217 28.5692 108.913 29.2489C108.61 29.9285 108.058 30.4639 107.373 30.7435L107.142 30.246C107.715 30.0248 108.178 29.583 108.429 29.0176C108.678 28.4566 108.698 27.8195 108.484 27.2442ZM109.764 26.9893V26.9516L109.809 26.9667L110.34 26.8461C110.602 27.831 110.517 28.8773 110.098 29.8057C109.68 30.734 108.954 31.4867 108.046 31.9346L107.777 31.4521C108.57 31.0567 109.202 30.3951 109.565 29.5808C109.928 28.7666 109.998 27.8503 109.764 26.9893Z" fill="white"/>
<path d="M49.4667 28.9744H91.2619C92.0176 28.9744 92.6376 29.5936 92.6376 30.3666V55.1003C92.6376 55.8733 92.0176 56.4924 91.2619 56.4924H49.4667C48.7111 56.4924 48.0911 55.8733 48.0911 55.1003V30.3666C48.0911 29.5936 48.7111 28.9744 49.4667 28.9744Z" stroke="white"/>
<path d="M93.0927 31.1883H47.5911V37.6638H93.0927V31.1883Z" fill="white"/>
<path opacity="0.5" d="M78.8347 39.2167H49.7357V43.4232H78.8347V39.2167Z" fill="white"/>
<path opacity="0.5" d="M56.5957 45.3153H52.2989C50.8833 45.3153 49.7357 46.473 49.7357 47.901V47.9086C49.7357 49.3366 50.8833 50.4943 52.2989 50.4943H56.5957C58.0113 50.4943 59.1589 49.3366 59.1589 47.9086V47.901C59.1589 46.473 58.0113 45.3153 56.5957 45.3153Z" fill="white"/>
<path d="M87.3238 51.0597V54.5274L90.298 52.7935L87.3238 51.0597Z" fill="white"/>
</g>
<path d="M14.6022 24.0361C13.7823 24.0361 13.0188 23.9029 12.3117 23.6364C11.6148 23.3597 11.005 22.9754 10.4824 22.4835C9.96995 21.9813 9.57026 21.392 9.28331 20.7156C8.99635 20.0392 8.85288 19.3013 8.85288 18.502C8.85288 17.7026 8.99635 16.9647 9.28331 16.2883C9.57026 15.6119 9.97507 15.0278 10.4977 14.5358C11.0204 14.0337 11.6302 13.6494 12.3271 13.3829C13.024 13.1062 13.7875 12.9678 14.6176 12.9678C15.4989 12.9678 16.3034 13.1216 17.0311 13.429C17.7587 13.7262 18.3736 14.172 18.8758 14.7664L17.5845 15.9809C17.195 15.5607 16.7595 15.2481 16.2778 15.0431C15.7961 14.8279 15.2735 14.7203 14.7098 14.7203C14.1462 14.7203 13.6286 14.8126 13.1572 14.997C12.696 15.1815 12.2912 15.4428 11.9428 15.781C11.6046 16.1192 11.3381 16.5189 11.1434 16.9801C10.9589 17.4413 10.8667 17.9486 10.8667 18.502C10.8667 19.0554 10.9589 19.5627 11.1434 20.0238C11.3381 20.485 11.6046 20.8847 11.9428 21.2229C12.2912 21.5611 12.696 21.8224 13.1572 22.0069C13.6286 22.1914 14.1462 22.2836 14.7098 22.2836C15.2735 22.2836 15.7961 22.1811 16.2778 21.9762C16.7595 21.7609 17.195 21.4381 17.5845 21.0077L18.8758 22.2375C18.3736 22.8216 17.7587 23.2675 17.0311 23.5749C16.3034 23.8824 15.4938 24.0361 14.6022 24.0361ZM20.6062 23.8824V15.6734H22.4355V17.9332L22.2203 17.2722C22.4662 16.7187 22.8505 16.2986 23.3732 16.0116C23.9061 15.7247 24.5671 15.5812 25.3563 15.5812V17.4105C25.2743 17.39 25.1974 17.3798 25.1257 17.3798C25.0539 17.3695 24.9822 17.3644 24.9105 17.3644C24.1828 17.3644 23.6038 17.5796 23.1734 18.01C22.7429 18.4302 22.5277 19.0605 22.5277 19.9009V23.8824H20.6062ZM30.7698 23.99C29.8577 23.99 29.0583 23.8106 28.3717 23.4519C27.6953 23.083 27.1675 22.5808 26.7883 21.9454C26.4194 21.31 26.2349 20.5875 26.2349 19.7779C26.2349 18.958 26.4143 18.2355 26.7729 17.6104C27.1419 16.975 27.6441 16.4779 28.2795 16.1192C28.9251 15.7605 29.6579 15.5812 30.4777 15.5812C31.2771 15.5812 31.9894 15.7554 32.6145 16.1038C33.2397 16.4523 33.7316 16.9442 34.0903 17.5796C34.449 18.215 34.6283 18.9631 34.6283 19.824C34.6283 19.906 34.6232 19.9982 34.6129 20.1007C34.6129 20.2032 34.6078 20.3006 34.5976 20.3928H27.7568V19.1169H33.583L32.8297 19.5166C32.84 19.0451 32.7426 18.6301 32.5377 18.2714C32.3327 17.9127 32.0509 17.6309 31.6922 17.4259C31.3437 17.2209 30.9389 17.1184 30.4777 17.1184C30.0063 17.1184 29.5912 17.2209 29.2326 17.4259C28.8841 17.6309 28.6074 17.9178 28.4024 18.2867C28.2077 18.6454 28.1104 19.0707 28.1104 19.5627V19.8701C28.1104 20.362 28.2231 20.7976 28.4486 21.1768C28.674 21.556 28.9917 21.8481 29.4017 22.053C29.8116 22.258 30.283 22.3605 30.8159 22.3605C31.2771 22.3605 31.6922 22.2887 32.0611 22.1453C32.43 22.0018 32.758 21.7763 33.0449 21.4689L34.0749 22.6526C33.706 23.083 33.2397 23.4161 32.676 23.6518C32.1226 23.8772 31.4872 23.99 30.7698 23.99ZM39.9483 23.99C39.1592 23.99 38.4469 23.8157 37.8115 23.4673C37.1864 23.1086 36.6944 22.6167 36.3358 21.9915C35.9771 21.3664 35.7977 20.6285 35.7977 19.7779C35.7977 18.9273 35.9771 18.1894 36.3358 17.5642C36.6944 16.9391 37.1864 16.4523 37.8115 16.1038C38.4469 15.7554 39.1592 15.5812 39.9483 15.5812C40.6349 15.5812 41.2498 15.7349 41.793 16.0424C42.3362 16.3396 42.7666 16.7956 43.0843 17.4105C43.402 18.0254 43.5608 18.8145 43.5608 19.7779C43.5608 20.731 43.4071 21.5201 43.0997 22.1453C42.7922 22.7602 42.3669 23.2213 41.8238 23.5288C41.2806 23.8362 40.6554 23.99 39.9483 23.99ZM40.1789 22.3451C40.6401 22.3451 41.05 22.2426 41.4087 22.0376C41.7776 21.8327 42.0697 21.5355 42.2849 21.146C42.5104 20.7566 42.6231 20.3006 42.6231 19.7779C42.6231 19.245 42.5104 18.7889 42.2849 18.4097C42.0697 18.0203 41.7776 17.7231 41.4087 17.5181C41.05 17.3132 40.6401 17.2107 40.1789 17.2107C39.7177 17.2107 39.3027 17.3132 38.9337 17.5181C38.575 17.7231 38.2829 18.0203 38.0575 18.4097C37.8423 18.7889 37.7347 19.245 37.7347 19.7779C37.7347 20.3006 37.8423 20.7566 38.0575 21.146C38.2829 21.5355 38.575 21.8327 38.9337 22.0376C39.3027 22.2426 39.7177 22.3451 40.1789 22.3451ZM42.6692 23.8824V21.9454L42.7461 19.7625L42.5924 17.5796V12.4759H44.4986V23.8824H42.6692ZM47.0277 23.8824V15.6734H48.9493V23.8824H47.0277ZM47.9962 14.3206C47.6375 14.3206 47.3403 14.2079 47.1046 13.9824C46.8791 13.757 46.7664 13.4854 46.7664 13.1677C46.7664 12.8397 46.8791 12.5682 47.1046 12.3529C47.3403 12.1275 47.6375 12.0147 47.9962 12.0147C48.3549 12.0147 48.647 12.1224 48.8724 12.3376C49.1081 12.5425 49.226 12.8039 49.226 13.1216C49.226 13.4598 49.1133 13.7467 48.8878 13.9824C48.6623 14.2079 48.3651 14.3206 47.9962 14.3206ZM54.5612 23.99C53.6594 23.99 52.9625 23.7594 52.4706 23.2982C51.9786 22.8268 51.7327 22.135 51.7327 21.2229V13.8595H53.6542V21.1768C53.6542 21.5662 53.7516 21.8686 53.9463 22.0838C54.1513 22.299 54.4331 22.4066 54.7918 22.4066C55.2222 22.4066 55.5809 22.2939 55.8679 22.0684L56.4059 23.4366C56.1805 23.621 55.9038 23.7594 55.5758 23.8516C55.2479 23.9438 54.9097 23.99 54.5612 23.99ZM50.3799 17.2722V15.7349H55.8525V17.2722H50.3799ZM13.2033 37.99C12.3424 37.99 11.5738 37.8106 10.8974 37.4519C10.2313 37.083 9.70861 36.5808 9.32942 35.9454C8.95023 35.31 8.76064 34.5875 8.76064 33.7779C8.76064 32.958 8.95023 32.2355 9.32942 31.6104C9.70861 30.975 10.2313 30.4779 10.8974 30.1192C11.5738 29.7605 12.3424 29.5812 13.2033 29.5812C14.0027 29.5812 14.7047 29.7452 15.3093 30.0731C15.9242 30.3908 16.3905 30.8622 16.7082 31.4874L15.2325 32.3482C14.9865 31.9588 14.6842 31.6718 14.3255 31.4874C13.9771 31.3029 13.5979 31.2107 13.1879 31.2107C12.7165 31.2107 12.2912 31.3132 11.912 31.5181C11.5328 31.7231 11.2356 32.0203 11.0204 32.4097C10.8052 32.7889 10.6976 33.245 10.6976 33.7779C10.6976 34.3108 10.8052 34.772 11.0204 35.1614C11.2356 35.5406 11.5328 35.8327 11.912 36.0376C12.2912 36.2426 12.7165 36.3451 13.1879 36.3451C13.5979 36.3451 13.9771 36.2529 14.3255 36.0684C14.6842 35.8839 14.9865 35.597 15.2325 35.2075L16.7082 36.0684C16.3905 36.6833 15.9242 37.1598 15.3093 37.498C14.7047 37.826 14.0027 37.99 13.2033 37.99ZM23.4269 37.8824V36.2221L23.3193 35.8686V32.9631C23.3193 32.3995 23.1502 31.9639 22.812 31.6565C22.4738 31.3388 21.9614 31.1799 21.2747 31.1799C20.8136 31.1799 20.3575 31.2517 19.9066 31.3951C19.4659 31.5386 19.0918 31.7385 18.7844 31.9947L18.0311 30.5958C18.4718 30.2576 18.9945 30.0065 19.5991 29.8425C20.214 29.6683 20.8494 29.5812 21.5053 29.5812C22.6941 29.5812 23.6114 29.8681 24.257 30.442C24.9129 31.0057 25.2409 31.8819 25.2409 33.0707V37.8824H23.4269ZM20.8443 37.99C20.2294 37.99 19.6914 37.8875 19.2302 37.6825C18.769 37.4673 18.4103 37.1752 18.1541 36.8063C17.9081 36.4271 17.7852 36.0018 17.7852 35.5304C17.7852 35.0692 17.8928 34.6541 18.108 34.2852C18.3335 33.9162 18.6973 33.6242 19.1994 33.4089C19.7016 33.1937 20.3678 33.0861 21.1979 33.0861H23.5806V34.362H21.3362C20.6803 34.362 20.2397 34.4696 20.0142 34.6849C19.7887 34.8898 19.676 35.146 19.676 35.4535C19.676 35.8019 19.8143 36.0786 20.091 36.2836C20.3678 36.4886 20.7521 36.5911 21.244 36.5911C21.7154 36.5911 22.1356 36.4835 22.5045 36.2682C22.8837 36.053 23.1553 35.7353 23.3193 35.3151L23.6421 36.4681C23.4576 36.9498 23.1246 37.3238 22.6429 37.5903C22.1715 37.8567 21.5719 37.99 20.8443 37.99ZM27.7069 37.8824V29.6734H29.5363V31.9332L29.3211 31.2722C29.567 30.7187 29.9513 30.2986 30.474 30.0116C31.0069 29.7247 31.6679 29.5812 32.4571 29.5812V31.4105C32.3751 31.39 32.2982 31.3798 32.2265 31.3798C32.1547 31.3695 32.083 31.3644 32.0113 31.3644C31.2836 31.3644 30.7046 31.5796 30.2742 32.01C29.8437 32.4302 29.6285 33.0605 29.6285 33.9009V37.8824H27.7069ZM37.4863 37.99C36.6972 37.99 35.9849 37.8157 35.3495 37.4673C34.7244 37.1086 34.2324 36.6167 33.8737 35.9915C33.515 35.3664 33.3357 34.6285 33.3357 33.7779C33.3357 32.9273 33.515 32.1894 33.8737 31.5642C34.2324 30.9391 34.7244 30.4523 35.3495 30.1038C35.9849 29.7554 36.6972 29.5812 37.4863 29.5812C38.1729 29.5812 38.7878 29.7349 39.331 30.0424C39.8742 30.3396 40.3046 30.7956 40.6223 31.4105C40.94 32.0254 41.0988 32.8145 41.0988 33.7779C41.0988 34.731 40.9451 35.5201 40.6377 36.1453C40.3302 36.7602 39.9049 37.2213 39.3617 37.5288C38.8186 37.8362 38.1934 37.99 37.4863 37.99ZM37.7169 36.3451C38.1781 36.3451 38.588 36.2426 38.9467 36.0376C39.3156 35.8327 39.6077 35.5355 39.8229 35.146C40.0484 34.7566 40.1611 34.3006 40.1611 33.7779C40.1611 33.245 40.0484 32.7889 39.8229 32.4097C39.6077 32.0203 39.3156 31.7231 38.9467 31.5181C38.588 31.3132 38.1781 31.2107 37.7169 31.2107C37.2557 31.2107 36.8406 31.3132 36.4717 31.5181C36.113 31.7231 35.8209 32.0203 35.5955 32.4097C35.3803 32.7889 35.2726 33.245 35.2726 33.7779C35.2726 34.3006 35.3803 34.7566 35.5955 35.146C35.8209 35.5355 36.113 35.8327 36.4717 36.0376C36.8406 36.2426 37.2557 36.3451 37.7169 36.3451ZM40.2072 37.8824V35.9454L40.2841 33.7625L40.1304 31.5796V26.4759H42.0366V37.8824H40.2072Z" fill="white"/>
<defs>
<clipPath id="clip0_1_59">
<rect width="67.2549" height="49" fill="white" transform="translate(47.5686 8)"/>
</clipPath>
</defs>
</svg>
