<svg width="120" height="64" viewBox="0 0 120 64" fill="none" xmlns="http://www.w3.org/2000/svg">
<path d="M46.3525 16.3443C44.7089 16.4283 43.0621 16.4283 41.4185 16.3443C40.2913 16.3746 39.1971 16.7309 38.2682 17.3701C37.3393 18.0093 36.6155 18.9039 36.1844 19.9458C34.7558 23.7873 33.2792 27.6409 31.8506 31.4945C29.8218 36.9447 27.7449 42.3949 25.7161 47.8451C25.6878 48.0039 25.6878 48.1665 25.7161 48.3253C26.9166 48.3253 28.1171 48.3253 29.2215 48.3253C29.8218 48.3253 30.0379 48.1092 30.254 47.593C31.6825 43.7395 33.1111 39.8859 34.5877 36.0803C34.616 35.9819 34.6716 35.8936 34.7481 35.8256C34.8246 35.7576 34.9189 35.7127 35.0199 35.6962C36.2204 35.6962 37.5289 35.6962 38.9095 35.6962C37.2648 39.9339 35.7522 44.0996 34.1075 48.3253H37.9971C38.1617 48.3471 38.3285 48.3061 38.4642 48.2104C38.5999 48.1148 38.6946 47.9715 38.7294 47.8091C40.5541 42.8751 42.3309 37.9411 44.2276 33.0071C45.8363 28.7213 47.4329 24.4356 49.0296 20.1138C49.2473 19.6895 49.3444 19.2135 49.3103 18.7378C49.2761 18.2621 49.112 17.8049 48.8358 17.4161C48.5597 17.0272 48.1821 16.7216 47.7442 16.5326C47.3063 16.3437 46.8249 16.2785 46.3525 16.3443ZM44.4918 20.498C43.1952 23.9194 41.9947 27.3288 40.6382 30.7502C40.122 32.1307 40.074 32.1307 38.6094 32.1307H35.9923C36.4605 30.8342 36.8927 29.7298 37.3368 28.5293C38.2852 25.9242 39.2816 23.3312 40.23 20.7381C40.4461 20.0898 40.7462 19.8257 41.4305 19.9098C42.2934 19.9817 43.1607 19.9817 44.0236 19.9098C44.5278 19.8858 44.6598 20.0658 44.4918 20.498Z" fill="white"/>
<path d="M97.1451 16.3803H88.8137C88.4656 16.3803 88.2495 16.3803 88.1175 16.8245L82.9193 31.2304C81.0226 36.5005 79.1138 41.8307 77.217 47.1128C77.085 47.497 76.9529 47.8811 76.8209 48.3133C76.9363 48.3302 77.0536 48.3302 77.169 48.3133H86.2087C86.384 48.337 86.5616 48.337 86.7369 48.3133C87.7985 47.9828 88.7623 47.3958 89.5433 46.6044C90.3243 45.813 90.8983 44.8414 91.2147 43.7755C92.7754 39.1056 94.5041 34.5197 96.1487 29.8858C97.3492 26.5965 98.5497 23.2711 99.6542 19.9818C99.8152 19.5777 99.8734 19.14 99.8237 18.7078C99.7739 18.2757 99.6177 17.8626 99.369 17.5057C99.1204 17.1488 98.7871 16.8591 98.3989 16.6627C98.0108 16.4663 97.58 16.3693 97.1451 16.3803ZM95.0683 20.582C93.3396 25.384 91.6589 30.1859 89.9182 34.9879C88.8377 38.0612 87.7213 41.1344 86.6289 44.2077C86.5448 44.4237 86.3287 44.6878 86.1607 44.6878C84.9602 44.6878 83.7597 44.6878 82.4752 44.6878C82.6913 44.0876 82.8233 43.5714 83.0034 43.0432C85.0802 37.2928 87.109 31.5425 89.1859 25.7802C89.8342 23.9674 90.4824 22.1787 91.1787 20.3299C91.2627 20.1619 91.4788 19.8978 91.6109 19.8978C92.8114 19.8978 94.0119 19.8978 95.2123 19.8978C95.1643 20.1979 95.1163 20.414 95.0683 20.582Z" fill="white"/>
<path d="M26.7485 16.3443C24.1074 16.4284 21.4303 16.3443 18.7892 16.3443C18.3931 16.3443 18.141 16.3443 18.0089 16.8245C17.0965 19.2255 16.1962 21.6265 15.2358 24.0875C12.4266 31.4465 9.58149 38.7575 6.79636 46.1765C6.54426 46.9088 6.28015 47.6411 5.98003 48.4214H10.0017C10.1817 48.4214 10.3978 48.2053 10.4819 48.0372C10.95 46.9088 11.3462 45.7443 11.7784 44.6158C12.8108 41.8427 13.8552 39.1176 14.9357 36.3445C15.0197 36.1284 15.1518 35.8283 15.2838 35.8283C15.9321 35.8283 16.5803 35.8283 17.3126 35.8283L14.9837 48.3614C16.3162 48.3614 17.5287 48.3614 18.7892 48.3614C19.3895 48.3614 19.5696 48.1453 19.6536 47.581C19.8217 46.3805 20.0858 45.036 20.3019 43.7755C20.734 41.1344 21.2142 38.4933 21.6464 35.8523C21.6616 35.6572 21.7242 35.4689 21.8289 35.3036C21.9335 35.1383 22.0769 35.0011 22.2466 34.9039C23.4162 34.2918 24.3246 33.2768 24.8037 32.0467C26.3163 28.0731 27.9129 24.0395 29.3415 20.0418C29.552 19.6282 29.646 19.1651 29.6134 18.7021C29.5807 18.2391 29.4227 17.7938 29.1562 17.4138C28.8897 17.0338 28.5248 16.7335 28.1007 16.5451C27.6765 16.3567 27.2091 16.2873 26.7485 16.3443ZM24.8397 20.534C23.4231 24.3036 21.9945 28.0251 20.566 31.7946C20.4699 31.9627 20.2538 32.2268 20.0858 32.2268C18.8853 32.2268 17.7928 32.2268 16.5803 32.2268C16.5803 32.0107 16.5803 31.8786 16.6644 31.7466C18.093 28.0251 19.5215 24.3036 20.9021 20.534C21.0822 20.1019 21.2983 19.8858 21.7785 19.9338C22.6428 19.9338 23.5432 19.9338 24.4075 19.9338C24.8877 19.9338 24.9718 20.1499 24.8397 20.534Z" fill="white"/>
<path d="M65.8244 16.3445C63.2674 16.4285 60.6743 16.3445 58.1173 16.3445C57.517 16.3445 57.337 16.5605 57.1689 17.0768C55.3081 22.1668 53.3994 27.2929 51.5026 32.395C49.6779 37.281 47.9011 42.1309 46.0884 47.0169C45.9211 47.4573 45.7769 47.9061 45.6562 48.3615H49.99C50.2061 47.7972 50.3741 47.281 50.5902 46.7648C51.5386 44.1598 52.499 41.5667 53.4474 39.0217C53.4908 38.8182 53.6081 38.6381 53.7766 38.5161C53.9451 38.3941 54.1529 38.339 54.3598 38.3614C55.4762 38.3614 56.6047 38.3614 57.6851 38.3614C58.8313 38.3607 59.9512 38.0175 60.9009 37.3757C61.8507 36.734 62.5869 35.8231 63.0153 34.7599C63.3154 34.0276 63.5675 33.2953 63.8316 32.515C65.3442 28.3613 66.9409 24.2077 68.3695 20.0059C68.5636 19.5972 68.6464 19.1443 68.6093 18.6933C68.5723 18.2422 68.4167 17.809 68.1584 17.4374C67.9001 17.0658 67.5482 16.769 67.1384 16.5771C66.7285 16.3852 66.2753 16.3049 65.8244 16.3445ZM63.8796 20.5342C62.4511 24.4718 60.9745 28.3733 59.5459 32.3109C59.3298 32.8752 59.1137 33.3914 58.9456 33.9556C58.933 34.0602 58.8987 34.1611 58.8448 34.2516C58.7909 34.3422 58.7187 34.4205 58.6328 34.4815C58.5469 34.5426 58.4492 34.585 58.346 34.6061C58.2427 34.6271 58.1362 34.6264 58.0333 34.6039C57.6575 34.5799 57.2806 34.5799 56.9048 34.6039H55.7043C55.2721 34.6039 55.1401 34.4718 55.3081 34.0396C56.5687 30.6663 57.8172 27.2449 59.0777 23.8715C59.4618 22.7911 59.894 21.7106 60.2782 20.6302C60.3241 20.4184 60.4459 20.2308 60.6206 20.1026C60.7952 19.9743 61.0108 19.9143 61.2266 19.9339C62.0061 19.9819 62.7879 19.9819 63.5675 19.9339C63.9156 19.9339 64.0477 20.102 63.8796 20.5342Z" fill="white"/>
<path d="M80.7945 16.3804H76.8089C76.6991 16.4046 76.596 16.4527 76.5068 16.5211C76.4176 16.5896 76.3445 16.6768 76.2927 16.7765C75.2483 19.5016 74.2519 22.2748 73.2555 24.9999C70.8065 31.9147 68.2854 38.8055 65.8244 45.7203L64.864 48.3614C66.1726 48.3614 67.3371 48.3614 68.4655 48.3614C69.0778 48.3614 69.2938 48.1453 69.4619 47.6291C70.0742 45.8524 70.7224 44.1237 71.3707 42.3469C72.8353 38.2733 74.3039 34.2076 75.7765 30.15C77.085 26.5485 78.3815 22.947 79.7141 19.3456C80.0982 18.3732 80.4104 17.4248 80.7945 16.3804Z" fill="white"/>
<path d="M101.215 28.3732V48.4094H93.4237L101.215 28.3732Z" fill="white"/>
<path d="M113.292 17.809V16.4284H113.892V19.8858H113.292V18.4573H105.152V17.809H113.292Z" fill="white"/>
<path d="M109.354 21.1943H105.152V20.534H113.892V21.8425C113.892 23.1391 113.292 23.7033 111.947 23.7033H111.515C110.435 23.7033 109.822 23.3551 109.654 22.7909C109.486 23.3912 109.006 23.6072 107.878 23.6072C106.968 23.5891 106.058 23.6212 105.152 23.7033V23.055C106.03 22.9745 106.912 22.9425 107.794 22.959C108.994 22.959 109.354 22.7909 109.354 21.8785V21.1943ZM109.918 21.1943V21.9266C109.918 22.8389 110.519 23.007 111.467 23.007H111.899C112.764 23.007 113.328 22.7429 113.328 21.8065V21.2063L109.918 21.1943Z" fill="white"/>
<path d="M108.274 25.564L105.152 25.0838V24.4356L113.892 25.9002V26.8125L105.152 28.3252V27.6409L108.274 27.1127V25.564ZM108.826 27.0286C111.083 26.6445 112.596 26.4284 113.328 26.3323C112.68 26.3323 110.651 25.9362 108.826 25.6841V27.0286Z" fill="white"/>
<path d="M105.152 29.1537H113.892V29.934C111.995 30.4863 107.229 31.8308 106.365 32.0109C107.565 32.0109 108.766 31.9268 110.255 31.9268H113.856V32.5271H105.152V31.7708C107.193 31.1585 112.031 29.862 112.944 29.6459C111.899 29.6459 110.351 29.73 108.79 29.73H105.189L105.152 29.1537Z" fill="white"/>
<path d="M107.529 34.1716H107.061C106.101 34.1716 105.633 34.5198 105.633 35.2161C105.633 35.9123 106.065 36.2485 107.277 36.2485C107.726 36.2789 108.175 36.1825 108.572 35.9702C108.969 35.758 109.298 35.4384 109.522 35.048C109.748 34.6116 110.094 34.2493 110.52 34.0045C110.945 33.7597 111.433 33.6427 111.923 33.6674C113.004 33.6674 114 33.9675 114 35.2281C114 36.4886 113.304 36.7407 112.091 36.7407H111.755V36.0924H112.091C112.92 36.0924 113.436 35.9123 113.436 35.2281C113.436 34.5438 112.836 34.3157 112.055 34.3157C111.67 34.2736 111.281 34.3498 110.94 34.5343C110.599 34.7187 110.322 35.0025 110.146 35.3481C109.887 35.8565 109.48 36.2744 108.979 36.5466C108.477 36.8188 107.905 36.9325 107.337 36.8727C106.137 36.8727 105.044 36.5606 105.044 35.2281C105.044 33.8955 105.909 33.5354 107.037 33.5354H107.505V34.1716H107.529Z" fill="white"/>
<path d="M113.892 37.9291V40.7502H113.292V38.5773H110.038V40.6182H109.438V38.5773H105.116V37.9291H113.892Z" fill="white"/>
<path d="M109.57 44.1596V42.1788H105.765V44.4238L105.152 44.3397V41.5666H113.892V44.2917H113.292V42.1788H110.135V44.1596H109.57Z" fill="white"/>
<path d="M109.354 45.8524H105.152V45.2041H113.892V46.5006C113.892 47.7972 113.292 48.3614 111.947 48.3614H111.515C110.435 48.3614 109.822 48.0132 109.654 47.449C109.486 48.0613 109.006 48.2774 107.878 48.2774C107.145 48.2774 105.765 48.2774 105.152 48.3614V47.7131C105.717 47.6291 107.193 47.6291 107.794 47.6291C108.994 47.6291 109.354 47.449 109.354 46.5487V45.8524ZM109.918 45.8524V46.6327C109.918 47.5451 110.519 47.7131 111.467 47.7131H111.899C112.764 47.7131 113.328 47.449 113.328 46.5126V45.9124H109.918V45.8524Z" fill="white"/>
</svg>
