<svg width="160" height="93" viewBox="0 0 160 93" fill="none" xmlns="http://www.w3.org/2000/svg">
<path d="M97.4612 38.7261C99.2755 38.7261 100.745 37.2207 100.745 35.3645C100.745 33.5083 99.2746 32 97.4612 32C95.6479 32 94.1807 33.5073 94.1807 35.3645C94.1806 35.806 94.2654 36.2433 94.4302 36.6512C94.595 37.0592 94.8366 37.4299 95.1412 37.7421C95.4458 38.0544 95.8075 38.3021 96.2056 38.4711C96.6037 38.6401 97.0303 38.7271 97.4612 38.7271M72.3133 40.5392C72.1651 40.9312 71.0987 44.0085 68.5192 47.2064V33.5289L61.6474 34.9205V59.7158H68.5202V52.0518C70.5114 55.1096 71.4946 59.7158 71.4946 59.7158H79.7265C78.9135 56.2464 75.3509 49.8516 75.3509 49.8516C77.4675 47.054 79.099 43.9043 80.1741 40.5401L72.3133 40.5392ZM90.3799 40.2804C84.2254 40.4833 81.0999 43.3127 81.0999 48.9382V59.7148H87.8158V50.9277C87.8158 47.5602 88.2462 46.1254 92.1464 45.9784V40.3824C91.4903 40.2393 90.3799 40.2844 90.3799 40.2844M50.1227 43.2735C49.281 43.2176 47.3319 43.0873 47.3319 41.2899C47.3319 39.121 50.137 39.121 51.19 39.121C53.0407 39.121 55.4365 39.6797 57.1485 40.206C57.7315 40.4545 58.3209 40.6872 58.9159 40.9037L58.9924 40.9253V34.9823L58.8891 34.9509C56.8692 34.2257 54.5212 33.5299 50.1667 33.5299C42.6588 33.5299 40 38.0106 40 41.8505C40 44.0634 40.9258 49.2724 49.523 49.8732C50.2518 49.9192 52.1856 50.0329 52.1856 51.8921C52.1856 53.4258 50.6018 54.3304 47.9392 54.3304C45.0221 54.3304 42.1883 53.5679 40.4696 52.8447V58.9631C43.0443 59.654 45.946 60 49.348 60C56.6884 60 59.9756 55.7603 59.9756 51.5579C59.9756 46.7929 56.2973 43.6979 50.1246 43.2735M94.1348 59.7187H100.795V40.5627H94.1329L94.1348 59.7187ZM113.338 34.752V59.7187H120V33.5318L113.338 34.752ZM103.618 34.752L110.272 33.5318V59.7187H103.618V34.75V34.752Z" fill="white"/>
</svg>
